<svg xmlns="http://www.w3.org/2000/svg" viewBox="0 0 800 275"><title>kwc-git-header</title><rect width="800" height="275" style="fill:#2d3748"/><path d="M125.8609,199.3071l-1.854,1.9967v4.9441h-3.5655V188.9435h3.5655v7.844l1.5688-2.1507,4.4088-5.6933h4.386l-6.1449,7.69,6.3227,9.6144h-4.2424Z" style="fill:#fff"/><path d="M149.86,197.9874a10.4472,10.4472,0,0,1-.9033,4.48,6.8073,6.8073,0,0,1-2.5852,2.9721,7.637,7.637,0,0,1-7.6957.0114,6.8633,6.8633,0,0,1-2.6147-2.9531,10.1446,10.1446,0,0,1-.9384-4.4155v-.8557a10.3955,10.3955,0,0,1,.9213-4.4991,6.8458,6.8458,0,0,1,2.6023-2.9817,7.6264,7.6264,0,0,1,7.69,0,6.8517,6.8517,0,0,1,2.6024,2.9817,10.3673,10.3673,0,0,1,.9213,4.4877Zm-3.613-.7834a7.2778,7.2778,0,0,0-.9746-4.136,3.4434,3.4434,0,0,0-5.5507-.019,7.199,7.199,0,0,0-.986,4.0941v.8443a7.3824,7.3824,0,0,0,.9746,4.1132,3.4144,3.4144,0,0,0,5.5621.0532,7.3322,7.3322,0,0,0,.9746-4.1074Z" style="fill:#fff"/><path d="M157.23,188.9435l4.445,12.5505,4.4211-12.55h4.6827v17.3044h-3.5778v-4.7311l.3575-8.1635-4.6713,12.8946h-2.4483l-4.6588-12.8832.3565,8.1521v4.7311h-3.5655V188.9435Z" style="fill:#fff"/><path d="M178.6746,188.9435,183.12,201.494l4.4212-12.55h4.6826v17.3044h-3.5778v-4.7311l.3575-8.1635-4.6712,12.8946h-2.4483l-4.6589-12.8832.3566,8.1521v4.7311h-3.5655V188.9435Z" style="fill:#fff"/><path d="M208.5551,188.9435v11.3981a5.8345,5.8345,0,0,1-1.777,4.4915,6.8517,6.8517,0,0,1-4.8548,1.6525,6.9239,6.9239,0,0,1-4.8138-1.6049,5.7333,5.7333,0,0,1-1.818-4.41V188.9435h3.5655v11.4209a3.2957,3.2957,0,0,0,.8139,2.4778,3.1266,3.1266,0,0,0,2.2524.78q3.0065,0,3.0549-3.1623v-11.516Z" style="fill:#fff"/><path d="M225.6722,206.2479h-3.5655l-6.9408-11.3867v11.3867h-3.5654V188.9435h3.5654l6.9532,11.41v-11.41h3.5531Z" style="fill:#fff"/><path d="M238.8911,202.6824H232.64l-1.1885,3.5655H227.66l6.4407-17.3044h3.3049l6.4768,17.3044H240.091Zm-5.2884-2.8885h4.3262l-2.1755-6.4768Z" style="fill:#fff"/><path d="M249.1872,203.3841h7.5711v2.8638H245.6217V188.9435h3.5655Z" style="fill:#fff"/><path d="M133.9189,226.57l2.3294-12.3127h3.5541l-3.8393,17.3044h-3.5892l-2.8172-11.5768L126.74,231.5618h-3.5892l-3.8384-17.3044h3.5531l2.3418,12.288,2.8524-12.288h3.0178Z" style="fill:#fff"/><path d="M150.206,227.9963h-6.2515l-1.1885,3.5655h-3.7908l6.4407-17.3044h3.3049l6.4768,17.3044h-3.7917Zm-5.2883-2.8885h4.3261l-2.1755-6.4768Z" style="fill:#fff"/><path d="M170.12,231.5618h-3.5655v-7.4162h-6.9531v7.4162h-3.5655V214.2574h3.5655v7.0111h6.9531v-7.0111H170.12Z" style="fill:#fff"/><path d="M176.0181,228.698h7.5711v2.8638H172.4526V214.2574h3.5655Z" style="fill:#fff"/><path d="M197.6771,225.7981a6.1181,6.1181,0,0,1-2.0613,4.3965,7.2392,7.2392,0,0,1-4.9023,1.6049,6.515,6.515,0,0,1-5.236-2.24,9.193,9.193,0,0,1-1.9073-6.1516v-1.0573a10.3583,10.3583,0,0,1,.88-4.3964,6.5894,6.5894,0,0,1,2.5139-2.919,7.8554,7.8554,0,0,1,8.6217.5895,6.5758,6.5758,0,0,1,2.1165,4.503h-3.5655a3.6162,3.6162,0,0,0-.9336-2.43,3.4577,3.4577,0,0,0-2.4417-.7549,3.0305,3.0305,0,0,0-2.6688,1.2779,7.1649,7.1649,0,0,0-.909,3.9648v1.3064a7.66,7.66,0,0,0,.85,4.1,2.9739,2.9739,0,0,0,2.68,1.2969,3.5238,3.5238,0,0,0,2.4654-.755,3.4078,3.4078,0,0,0,.9327-2.3351Z" style="fill:#fff"/><path d="M213.3243,231.5618h-3.5655v-7.4162h-6.9531v7.4162H199.24V214.2574h3.5655v7.0111h6.9531v-7.0111h3.5655Z" style="fill:#fff"/><path d="M226.0706,224.0619h-6.8457v4.6361h8.0342v2.8638h-11.6V214.2574h11.5759v2.8885h-8.01v4.1226h6.8457Z" style="fill:#fff"/><path d="M242.1561,225.7981a6.1181,6.1181,0,0,1-2.0613,4.3965,7.2392,7.2392,0,0,1-4.9023,1.6049,6.515,6.515,0,0,1-5.236-2.24,9.193,9.193,0,0,1-1.9073-6.1516v-1.0573a10.3583,10.3583,0,0,1,.8795-4.3964,6.5888,6.5888,0,0,1,2.5139-2.919,7.8554,7.8554,0,0,1,8.6217.5895,6.5762,6.5762,0,0,1,2.1165,4.503h-3.5655a3.6167,3.6167,0,0,0-.9337-2.43,3.4573,3.4573,0,0,0-2.4416-.7549,3.0308,3.0308,0,0,0-2.6689,1.2779,7.165,7.165,0,0,0-.9089,3.9648v1.3064a7.66,7.66,0,0,0,.85,4.1,2.9739,2.9739,0,0,0,2.68,1.2969,3.5238,3.5238,0,0,0,2.4654-.755,3.4078,3.4078,0,0,0,.9327-2.3351Z" style="fill:#fff"/><path d="M249.1377,224.621l-1.854,1.9967v4.9441h-3.5655V214.2574h3.5655v7.844l1.5688-2.1507,4.4088-5.6933h4.386l-6.1449,7.69,6.3227,9.6144h-4.2424Z" style="fill:#fff"/><path d="M186.0928,86.8189l8.0914,8.0914a4.0474,4.0474,0,0,0,6.6989-1.5816l8.0914-24.2742a4.0458,4.0458,0,0,0-7.6764-2.5587L195.2768,84.56l-3.4626-3.4626a4.0456,4.0456,0,0,0-5.7214,5.7214Z" style="fill:#fff"/><path d="M249.9086,169.1872H127.9981V136.5519H249.9086v32.6353ZM127.9981,104.1866h29.3384l4.6714,8.0911H148.4964a4.0457,4.0457,0,1,0,0,8.0914H229.41a4.0457,4.0457,0,0,0,0-8.0914H204.6332l14.0148-8.0911h31.2606v24.2739H127.9981V104.1866ZM218.4713,48.742l20.201,34.54L188.45,112.2777H171.3508L155.4091,84.6658,218.4713,48.742Zm35.483,47.3532H232.6626l13.579-7.84a4.0468,4.0468,0,0,0,1.4694-5.5462L223.4368,41.2043a4.046,4.046,0,0,0-5.4949-1.4729L147.8682,79.6491a4.0465,4.0465,0,0,0-1.501,5.5381l6.2976,10.908H123.9524a4.0456,4.0456,0,0,0-4.0457,4.0457v73.092a4.0458,4.0458,0,0,0,4.0457,4.0457H253.9543A4.0458,4.0458,0,0,0,258,173.2329v-73.092a4.0456,4.0456,0,0,0-4.0457-4.0457Z" style="fill:#fff"/><path d="M559.6433,202.6232v4.5819a2.2255,2.2255,0,0,1-.6993,1.73,3.0643,3.0643,0,0,1-3.7316.0094A2.2365,2.2365,0,0,1,554.52,207.2v-4.577h1.1866V207.21a1.4567,1.4567,0,0,0,.3484,1.05,1.3593,1.3593,0,0,0,1.0265.3627q1.375,0,1.3749-1.45v-4.5489Z" style="fill:#fff"/><path d="M563.4715,205.43a2.8529,2.8529,0,0,0-.4662-.0375,1.0491,1.0491,0,0,0-1.0592.6027v3.4844h-1.1443v-5.0949h1.0923l.0283.57a1.29,1.29,0,0,1,1.149-.6638,1.0707,1.0707,0,0,1,.405.066Z" style="fill:#fff"/><path d="M568.6655,206.9838a3.06,3.06,0,0,1-.53,1.888,1.7256,1.7256,0,0,1-1.4574.7017,1.6614,1.6614,0,0,1-1.3938-.6451l-.0565.5509h-1.0358v-7.2326h1.1442v2.6275a1.6563,1.6563,0,0,1,1.3325-.5839,1.7449,1.7449,0,0,1,1.4644.6923,3.1105,3.1105,0,0,1,.5322,1.9352Zm-1.1443-.099a2.1634,2.1634,0,0,0-.292-1.2432.9725.9725,0,0,0-.8475-.4141,1.0619,1.0619,0,0,0-1.0453.65v2.1a1.0731,1.0731,0,0,0,1.0546.6638.965.965,0,0,0,.8289-.4,2.0979,2.0979,0,0,0,.3013-1.21Z" style="fill:#fff"/><path d="M572.6677,209.4793a.7425.7425,0,1,0-1.469.0942,1.7966,1.7966,0,0,1-1.2527-.4381,1.4,1.4,0,0,1-.4849-1.0827,1.4463,1.4463,0,0,1,.6051-1.25,2.9305,2.9305,0,0,1,1.7305-.4356h.7015v-.3341a.8928.8928,0,0,0-.2213-.6337.8775.8775,0,0,0-.6734-.2376,1.01,1.01,0,0,0-.64.1952.6056.6056,0,0,0-.25.4968h-1.1442a1.2716,1.2716,0,0,1,.2779-.7841,1.8584,1.8584,0,0,1,.7557-.5721,2.6624,2.6624,0,0,1,1.0666-.207,2.1374,2.1374,0,0,1,1.4267.45,1.603,1.603,0,0,1,.5462,1.264v2.2979a2.6048,2.6048,0,0,0,.1932,1.0974v.08Zm-1.2571-.8239a1.3,1.3,0,0,0,.6379-.165,1.1,1.1,0,0,0,.45-.4426v-.96h-.6168a1.6877,1.6877,0,0,0-.956.2213.7166.7166,0,0,0-.32.6263.6683.6683,0,0,0,.2189.5249A.8478.8478,0,0,0,571.4106,208.6554Z" style="fill:#fff"/><path d="M575.9028,204.3844l.0328.5889a1.8322,1.8322,0,0,1,1.4833-.683q1.5916,0,1.62,1.8223v3.3667h-1.1443v-3.3007a1.05,1.05,0,0,0-.2094-.718.8811.8811,0,0,0-.6852-.2331,1.1029,1.1029,0,0,0-1.0312.626v3.6258h-1.1443v-5.0949Z" style="fill:#fff"/><path d="M582.4478,209.5735a2.3663,2.3663,0,0,1-1.7633-.685,2.4852,2.4852,0,0,1-.6758-1.8248v-.1414a3.058,3.058,0,0,1,.2944-1.3631,2.2427,2.2427,0,0,1,.8262-.9348,2.1889,2.1889,0,0,1,1.1866-.3341,2,2,0,0,1,1.6082.6638,2.8087,2.8087,0,0,1,.5673,1.879v.4613h-3.3291a1.53,1.53,0,0,0,.4216.9983,1.2644,1.2644,0,0,0,.93.3672,1.5492,1.5492,0,0,0,1.2807-.6357l.617.5888a2.0619,2.0619,0,0,1-.817.7086A2.559,2.559,0,0,1,582.4478,209.5735Zm-.1365-4.3651a.9633.9633,0,0,0-.76.33,1.7091,1.7091,0,0,0-.37.9184h2.18v-.0847a1.3914,1.3914,0,0,0-.3061-.8688A.9558.9558,0,0,0,582.3113,205.2084Z" style="fill:#fff"/><path d="M585.5417,211.0238l-.617-.3672a3.3273,3.3273,0,0,0,.3743-.7465,2.2178,2.2178,0,0,0,.106-.6475v-.89h1.0313l-.0049.824a2.2942,2.2942,0,0,1-.2518,1A2.4835,2.4835,0,0,1,585.5417,211.0238Z" style="fill:#fff"/><path d="M592.5294,206.8424h-1.328v2.6369H590.01v-6.8561h2.4109a2.8049,2.8049,0,0,1,1.8317.5326,1.8845,1.8845,0,0,1,.6451,1.5412,1.9315,1.9315,0,0,1-.3319,1.1524,2.1149,2.1149,0,0,1-.9253.7139l1.54,2.8549v.0611h-1.2761Zm-1.328-.96h1.2243a1.3613,1.3613,0,0,0,.9417-.304,1.0575,1.0575,0,0,0,.3391-.8309,1.1288,1.1288,0,0,0-.3132-.8525,1.3307,1.3307,0,0,0-.9346-.31h-1.2573Z" style="fill:#fff"/><path d="M598.1608,209.5735a2.366,2.366,0,0,1-1.7632-.685,2.4853,2.4853,0,0,1-.6759-1.8248v-.1414a3.058,3.058,0,0,1,.2944-1.3631,2.2427,2.2427,0,0,1,.8262-.9348,2.1893,2.1893,0,0,1,1.1867-.3341,2,2,0,0,1,1.6081.6638,2.8087,2.8087,0,0,1,.5673,1.879v.4613h-3.3291a1.53,1.53,0,0,0,.4216.9983,1.2644,1.2644,0,0,0,.93.3672,1.55,1.55,0,0,0,1.2808-.6357l.6169.5888a2.0619,2.0619,0,0,1-.817.7086A2.559,2.559,0,0,1,598.1608,209.5735Zm-.1365-4.3651a.9633.9633,0,0,0-.76.33,1.7091,1.7091,0,0,0-.37.9184h2.18v-.0847a1.392,1.392,0,0,0-.306-.8688A.956.956,0,0,0,598.0243,205.2084Z" style="fill:#fff"/><path d="M600.892,206.8942a2.98,2.98,0,0,1,.5581-1.8953,1.7908,1.7908,0,0,1,1.4808-.7086,1.6774,1.6774,0,0,1,1.37.6076l.0518-.5135h1.0313v4.94a2.052,2.052,0,0,1-.624,1.5819,2.3755,2.3755,0,0,1-1.6834.5794,2.7161,2.7161,0,0,1-1.0947-.233,1.9464,1.9464,0,0,1-.8122-.61l.5414-.6874a1.6351,1.6351,0,0,0,1.3.6263,1.2631,1.2631,0,0,0,.8993-.3085,1.182,1.182,0,0,0,.33-.9062v-.344a1.6851,1.6851,0,0,1-1.3185.551,1.7855,1.7855,0,0,1-1.462-.7111A3.0751,3.0751,0,0,1,600.892,206.8942Zm1.14.099a2.05,2.05,0,0,0,.3131,1.2078,1.0068,1.0068,0,0,0,.8688.44,1.101,1.101,0,0,0,1.0265-.5933v-2.2412a1.0849,1.0849,0,0,0-1.0171-.5791,1.0113,1.0113,0,0,0-.8782.4471A2.2972,2.2972,0,0,0,602.0316,206.9932Z" style="fill:#fff"/><path d="M606.5613,203.0613a.6085.6085,0,0,1,.1671-.4381.633.633,0,0,1,.478-.174.6406.6406,0,0,1,.48.174.6037.6037,0,0,1,.1695.4381.5876.5876,0,0,1-.1695.4307.6428.6428,0,0,1-.48.172.6352.6352,0,0,1-.478-.172A.5921.5921,0,0,1,606.5613,203.0613Zm1.2147,6.418h-1.1442v-5.0949h1.1442Z" style="fill:#fff"/><path d="M608.8074,206.8848a3.0039,3.0039,0,0,1,.2967-1.3492,2.1637,2.1637,0,0,1,.8333-.9226,2.3481,2.3481,0,0,1,1.2337-.3227,2.226,2.226,0,0,1,1.674.6638,2.6133,2.6133,0,0,1,.6946,1.7612l.0046.2685a3.0333,3.0333,0,0,1-.2895,1.3468,2.1433,2.1433,0,0,1-.8288.9181,2.3671,2.3671,0,0,1-1.2455.3248,2.21,2.21,0,0,1-1.7258-.718,2.7506,2.7506,0,0,1-.6473-1.914Zm1.1443.099a2.0526,2.0526,0,0,0,.3247,1.2311,1.0564,1.0564,0,0,0,.9041.445,1.0439,1.0439,0,0,0,.9017-.4519,2.2676,2.2676,0,0,0,.3226-1.3232,2.0266,2.0266,0,0,0-.3319-1.2241,1.1188,1.1188,0,0,0-1.7918-.0073A2.2258,2.2258,0,0,0,609.9517,206.9838Z" style="fill:#fff"/><path d="M615.5739,204.3844l.0328.5889a1.8322,1.8322,0,0,1,1.4833-.683q1.5916,0,1.62,1.8223v3.3667h-1.1443v-3.3007a1.05,1.05,0,0,0-.2094-.718.8812.8812,0,0,0-.6853-.2331,1.1028,1.1028,0,0,0-1.0311.626v3.6258h-1.1443v-5.0949Z" style="fill:#fff"/><path d="M622.9194,209.4793a.7425.7425,0,1,0-1.469.0942,1.7966,1.7966,0,0,1-1.2527-.4381,1.4,1.4,0,0,1-.4849-1.0827,1.4463,1.4463,0,0,1,.6051-1.25,2.9307,2.9307,0,0,1,1.7305-.4356h.7015v-.3341a.8928.8928,0,0,0-.2213-.6337.8775.8775,0,0,0-.6734-.2376,1.01,1.01,0,0,0-.64.1952.6056.6056,0,0,0-.25.4968H619.821a1.2716,1.2716,0,0,1,.2779-.7841,1.8584,1.8584,0,0,1,.7557-.5721,2.6624,2.6624,0,0,1,1.0666-.207,2.1374,2.1374,0,0,1,1.4267.45,1.603,1.603,0,0,1,.5462,1.264v2.2979a2.6048,2.6048,0,0,0,.1932,1.0974v.08Zm-1.2571-.8239a1.3,1.3,0,0,0,.6379-.165,1.0994,1.0994,0,0,0,.45-.4426v-.96h-.6168a1.6877,1.6877,0,0,0-.956.2213.7166.7166,0,0,0-.32.6263.6683.6683,0,0,0,.2189.5249A.8479.8479,0,0,0,621.6623,208.6554Z" style="fill:#fff"/><path d="M626.31,209.4793h-1.1442v-7.2326H626.31Z" style="fill:#fff"/><path d="M629.7989,209.5735a2.3663,2.3663,0,0,1-1.7632-.685,2.4852,2.4852,0,0,1-.6758-1.8248v-.1414a3.058,3.058,0,0,1,.2944-1.3631,2.242,2.242,0,0,1,.8262-.9348,2.1889,2.1889,0,0,1,1.1866-.3341,2,2,0,0,1,1.6082.6638,2.8093,2.8093,0,0,1,.5672,1.879v.4613h-3.329a1.53,1.53,0,0,0,.4215.9983,1.2647,1.2647,0,0,0,.93.3672,1.5494,1.5494,0,0,0,1.2808-.6357l.6169.5888a2.0605,2.0605,0,0,1-.817.7086A2.559,2.559,0,0,1,629.7989,209.5735Zm-.1365-4.3651a.9634.9634,0,0,0-.76.33,1.71,1.71,0,0,0-.37.9184h2.18v-.0847a1.3908,1.3908,0,0,0-.306-.8688A.956.956,0,0,0,629.6624,205.2084Z" style="fill:#fff"/><path d="M555.8858,219.6586h-1.1866v-6.8561h1.1866Z" style="fill:#fff"/><path d="M558.3014,214.5637l.0328.5888a1.8324,1.8324,0,0,1,1.4833-.683q1.5916,0,1.62,1.8224v3.3667h-1.1442v-3.3007a1.0486,1.0486,0,0,0-.2095-.718.8807.8807,0,0,0-.6852-.2331,1.1029,1.1029,0,0,0-1.0312.6259v3.6259H557.223v-5.0949Z" style="fill:#fff"/><path d="M563.6647,214.5637l.0328.5888a1.8322,1.8322,0,0,1,1.4833-.683q1.5916,0,1.62,1.8224v3.3667h-1.1443v-3.3007a1.0491,1.0491,0,0,0-.2094-.718.8807.8807,0,0,0-.6852-.2331,1.1028,1.1028,0,0,0-1.0312.6259v3.6259h-1.1443v-5.0949Z" style="fill:#fff"/><path d="M567.7519,217.0641a3.0057,3.0057,0,0,1,.2966-1.3493,2.1641,2.1641,0,0,1,.8333-.9225,2.3475,2.3475,0,0,1,1.2337-.3228,2.2259,2.2259,0,0,1,1.674.6638,2.6129,2.6129,0,0,1,.6946,1.7612l.0047.2686a3.035,3.035,0,0,1-.2895,1.3468,2.1445,2.1445,0,0,1-.8289.918,2.3668,2.3668,0,0,1-1.2455.3248,2.21,2.21,0,0,1-1.7257-.718,2.75,2.75,0,0,1-.6473-1.914Zm1.1442.099a2.0522,2.0522,0,0,0,.3248,1.231,1.056,1.056,0,0,0,.904.445,1.0442,1.0442,0,0,0,.9018-.4519,2.2681,2.2681,0,0,0,.3225-1.3231,2.0262,2.0262,0,0,0-.3319-1.2242,1.1187,1.1187,0,0,0-1.7917-.0073A2.2253,2.2253,0,0,0,568.8961,217.1631Z" style="fill:#fff"/><path d="M575.1821,218.2083l1.0783-3.6446h1.1819l-1.7657,5.0949h-.9937l-1.78-5.0949H574.09Z" style="fill:#fff"/><path d="M581.1293,219.6586a.7425.7425,0,1,0-1.469.0941,1.7967,1.7967,0,0,1-1.2526-.438,1.4,1.4,0,0,1-.485-1.0828,1.4462,1.4462,0,0,1,.6052-1.25,2.93,2.93,0,0,1,1.73-.4356h.7015v-.3341a.8928.8928,0,0,0-.2213-.6337.8773.8773,0,0,0-.6734-.2375,1.01,1.01,0,0,0-.64.1951.6053.6053,0,0,0-.25.4968h-1.1443a1.2713,1.2713,0,0,1,.2779-.784,1.8584,1.8584,0,0,1,.7557-.5722,2.6625,2.6625,0,0,1,1.0667-.207,2.1371,2.1371,0,0,1,1.4266.45,1.6029,1.6029,0,0,1,.5462,1.2641v2.2978a2.6042,2.6042,0,0,0,.1932,1.0974v.08Zm-1.2571-.824a1.3,1.3,0,0,0,.6379-.165,1.0982,1.0982,0,0,0,.45-.4426v-.96h-.6167a1.6867,1.6867,0,0,0-.956.2213.7163.7163,0,0,0-.32.6263.6681.6681,0,0,0,.2188.5248A.8479.8479,0,0,0,579.8722,218.8346Z" style="fill:#fff"/><path d="M584.7363,213.3253v1.2384h.8995v.8476h-.8995v2.8443a.6261.6261,0,0,0,.1155.4213.5343.5343,0,0,0,.412.1292,1.76,1.76,0,0,0,.4-.0469v.8851a2.8219,2.8219,0,0,1-.7532.1084q-1.3188,0-1.3185-1.4547v-2.8867h-.8382v-.8476h.8382v-1.2384Z" style="fill:#fff"/><path d="M586.5115,213.2405a.6081.6081,0,0,1,.1671-.438.6327.6327,0,0,1,.478-.174.64.64,0,0,1,.48.174.6033.6033,0,0,1,.1695.438.588.588,0,0,1-.1695.4308.6427.6427,0,0,1-.48.1719.6351.6351,0,0,1-.478-.1719A.5925.5925,0,0,1,586.5115,213.2405Zm1.2148,6.4181H586.582v-5.0949h1.1443Z" style="fill:#fff"/><path d="M588.7576,217.0641a3.0044,3.0044,0,0,1,.2967-1.3493,2.1634,2.1634,0,0,1,.8333-.9225,2.3475,2.3475,0,0,1,1.2337-.3228,2.226,2.226,0,0,1,1.674.6638,2.6133,2.6133,0,0,1,.6946,1.7612l.0047.2686a3.0336,3.0336,0,0,1-.29,1.3468,2.1436,2.1436,0,0,1-.8288.918,2.3671,2.3671,0,0,1-1.2455.3248,2.21,2.21,0,0,1-1.7258-.718,2.75,2.75,0,0,1-.6473-1.914Zm1.1443.099a2.0529,2.0529,0,0,0,.3247,1.231,1.0562,1.0562,0,0,0,.9041.445,1.0442,1.0442,0,0,0,.9018-.4519,2.2681,2.2681,0,0,0,.3225-1.3231,2.0262,2.0262,0,0,0-.3319-1.2242,1.1188,1.1188,0,0,0-1.7918-.0073A2.2261,2.2261,0,0,0,589.9019,217.1631Z" style="fill:#fff"/><path d="M595.5241,214.5637l.0328.5888a1.8322,1.8322,0,0,1,1.4833-.683q1.5916,0,1.62,1.8224v3.3667h-1.1443v-3.3007a1.0491,1.0491,0,0,0-.2094-.718.8807.8807,0,0,0-.6852-.2331,1.1029,1.1029,0,0,0-1.0312.6259v3.6259h-1.1443v-5.0949Z" style="fill:#fff"/><path d="M605.3133,219.1594a1.7738,1.7738,0,0,1-1.4313.5933,1.5824,1.5824,0,0,1-1.2549-.4849,2.0625,2.0625,0,0,1-.4262-1.4034v-3.3007h1.1442v3.2868q0,.97.8053.97a1.1306,1.1306,0,0,0,1.1252-.5978v-3.6589H606.42v5.0949h-1.0782Z" style="fill:#fff"/><path d="M608.6473,214.5637l.0328.5888a1.8322,1.8322,0,0,1,1.4833-.683q1.5916,0,1.62,1.8224v3.3667h-1.1442v-3.3007a1.0486,1.0486,0,0,0-.21-.718.88.88,0,0,0-.6852-.2331,1.1027,1.1027,0,0,0-1.0311.6259v3.6259h-1.1443v-5.0949Z" style="fill:#fff"/><path d="M612.7344,217.0734a3.0271,3.0271,0,0,1,.5463-1.89,1.75,1.75,0,0,1,1.4643-.7136,1.6627,1.6627,0,0,1,1.3091.5652v-2.6088h1.1443v7.2327h-1.0361l-.0564-.5273a1.6866,1.6866,0,0,1-1.37.6214,1.74,1.74,0,0,1-1.4481-.72A3.14,3.14,0,0,1,612.7344,217.0734Zm1.1443.0991a2.12,2.12,0,0,0,.2989,1.2122.97.97,0,0,0,.85.4357,1.0805,1.0805,0,0,0,1.0265-.6264v-2.1752a1.064,1.064,0,0,0-1.0171-.612.9773.9773,0,0,0-.857.44A2.3621,2.3621,0,0,0,613.8787,217.1725Z" style="fill:#fff"/><path d="M622.1612,219.6586h-1.1866v-6.8561h1.1866Z" style="fill:#fff"/><path d="M624.5769,214.5637l.0328.5888a1.8322,1.8322,0,0,1,1.4833-.683q1.5916,0,1.62,1.8224v3.3667h-1.1442v-3.3007a1.0486,1.0486,0,0,0-.2095-.718.88.88,0,0,0-.6852-.2331,1.1027,1.1027,0,0,0-1.0311.6259v3.6259h-1.1443v-5.0949Z" style="fill:#fff"/><path d="M630.312,213.3253v1.2384h.8995v.8476h-.8995v2.8443a.6261.6261,0,0,0,.1155.4213.5343.5343,0,0,0,.412.1292,1.76,1.76,0,0,0,.4-.0469v.8851a2.8219,2.8219,0,0,1-.7532.1084q-1.3188,0-1.3185-1.4547v-2.8867H628.33v-.8476h.8382v-1.2384Z" style="fill:#fff"/><path d="M634.3284,219.7527a2.3663,2.3663,0,0,1-1.7632-.685,2.4852,2.4852,0,0,1-.6758-1.8248v-.1414a3.0573,3.0573,0,0,1,.2944-1.363,2.2415,2.2415,0,0,1,.8262-.9348,2.1881,2.1881,0,0,1,1.1866-.3342,2,2,0,0,1,1.6082.6638,2.8093,2.8093,0,0,1,.5672,1.879v.4613h-3.329a1.53,1.53,0,0,0,.4215.9984,1.2647,1.2647,0,0,0,.93.3671,1.5494,1.5494,0,0,0,1.2808-.6357l.617.5888a2.0625,2.0625,0,0,1-.8171.7087A2.5587,2.5587,0,0,1,634.3284,219.7527Zm-.1365-4.3651a.9634.9634,0,0,0-.76.33,1.71,1.71,0,0,0-.37.9185h2.18v-.0848a1.3911,1.3911,0,0,0-.306-.8688A.9559.9559,0,0,0,634.1919,215.3876Z" style="fill:#fff"/><path d="M639.9272,215.6089a2.8538,2.8538,0,0,0-.4662-.0375,1.0491,1.0491,0,0,0-1.0592.6027v3.4845h-1.1443v-5.0949H638.35l.0283.57a1.29,1.29,0,0,1,1.149-.6638,1.0707,1.0707,0,0,1,.405.066Z" style="fill:#fff"/><path d="M641.712,214.5637l.0328.5888a1.8324,1.8324,0,0,1,1.4833-.683q1.5917,0,1.62,1.8224v3.3667h-1.1442v-3.3007a1.0486,1.0486,0,0,0-.21-.718.88.88,0,0,0-.6852-.2331,1.1027,1.1027,0,0,0-1.0311.6259v3.6259h-1.1443v-5.0949Z" style="fill:#fff"/><path d="M648.257,219.7527a2.3663,2.3663,0,0,1-1.7632-.685,2.4852,2.4852,0,0,1-.6758-1.8248v-.1414a3.0573,3.0573,0,0,1,.2944-1.363,2.2415,2.2415,0,0,1,.8262-.9348,2.1881,2.1881,0,0,1,1.1866-.3342,2,2,0,0,1,1.6082.6638,2.8093,2.8093,0,0,1,.5672,1.879v.4613h-3.329a1.53,1.53,0,0,0,.4215.9984,1.2647,1.2647,0,0,0,.93.3671,1.5494,1.5494,0,0,0,1.2808-.6357l.6169.5888a2.0616,2.0616,0,0,1-.817.7087A2.5587,2.5587,0,0,1,648.257,219.7527Zm-.1365-4.3651a.9634.9634,0,0,0-.76.33,1.71,1.71,0,0,0-.37.9185h2.18v-.0848a1.3911,1.3911,0,0,0-.306-.8688A.956.956,0,0,0,648.1205,215.3876Z" style="fill:#fff"/><path d="M652.6221,213.3253v1.2384h.9v.8476h-.9v2.8443a.6261.6261,0,0,0,.1155.4213.5345.5345,0,0,0,.412.1292,1.7612,1.7612,0,0,0,.4-.0469v.8851a2.8221,2.8221,0,0,1-.7533.1084q-1.3187,0-1.3184-1.4547v-2.8867H650.64v-.8476h.8382v-1.2384Z" style="fill:#fff"/><path d="M568.0285,180.2927V191.511a6.4483,6.4483,0,0,1-.8122,3.302,5.26,5.26,0,0,1-2.3308,2.125,8.2116,8.2116,0,0,1-3.5905.73,7.0929,7.0929,0,0,1-4.9323-1.6247,5.7929,5.7929,0,0,1-1.8364-4.45V180.2927h4.1555v11.3834q.0705,2.8135,2.6132,2.8133a2.53,2.53,0,0,0,1.9424-.7062,3.3028,3.3028,0,0,0,.6593-2.2958V180.2927Z" style="fill:#fff"/><path d="M576.975,191.37h-2.2365v6.0623h-4.132v-17.14h6.7453a7.53,7.53,0,0,1,4.7677,1.3521,4.583,4.583,0,0,1,1.7186,3.8218,5.5659,5.5659,0,0,1-.7239,2.9634,5.137,5.137,0,0,1-2.2661,1.905l3.5786,6.9205v.1768h-4.4262Zm-2.2365-3.1784h2.6133a2.3459,2.3459,0,0,0,1.7718-.62,2.3952,2.3952,0,0,0,.5943-1.7286,2.4241,2.4241,0,0,0-.6-1.7408,2.3237,2.3237,0,0,0-1.7659-.6313h-2.6133Z" style="fill:#fff"/><path d="M586.1217,181.4108a1.7707,1.7707,0,0,1,.6122-1.3891,2.6022,2.6022,0,0,1,3.1783,0,1.882,1.882,0,0,1,0,2.7783,2.6022,2.6022,0,0,1-3.1783,0A1.7707,1.7707,0,0,1,586.1217,181.4108Zm4.2143,16.0215h-3.9788v-12.737h3.9788Z" style="fill:#fff"/><path d="M592.7492,181.4108a1.7707,1.7707,0,0,1,.6122-1.3891,2.6022,2.6022,0,0,1,3.1783,0,1.882,1.882,0,0,1,0,2.7783,2.6022,2.6022,0,0,1-3.1783,0A1.7707,1.7707,0,0,1,592.7492,181.4108Zm4.2143,16.0215h-3.9788v-12.737h3.9788Z" style="fill:#fff"/><rect x="520.5865" y="180.3751" width="4.367" height="4.367" style="fill:#fff"/><rect x="529.3205" y="189.1091" width="4.367" height="4.367" style="fill:#fff"/><rect x="529.3205" y="180.3751" width="4.367" height="4.367" style="fill:#fff"/><path d="M533.6876,202.21v-4.3671h-4.3671V202.21h-4.367v-4.3671h4.367v-4.367h-8.734v-8.7341h-4.3671v-4.367h-4.367v4.367h-4.3671v34.9363h39.3034V206.5773h-4.367v8.7341h-4.3671v-8.7341h4.3671V202.21h4.367v-4.3671h-8.7341V202.21Zm-21.8352-13.1012h4.367v4.3671h-4.367Zm21.8352,21.8352h-4.3671v-4.367h4.3671Z" style="fill:#fff"/><rect x="533.6876" y="193.4762" width="4.367" height="4.367" style="fill:#fff"/><polygon points="538.055 184.742 533.688 184.742 533.688 189.109 538.055 189.109 542.422 189.109 542.422 184.742 538.055 184.742" style="fill:#fff"/><rect x="542.4217" y="189.1091" width="4.367" height="4.367" style="fill:#fff"/><rect x="542.4217" y="180.3751" width="4.367" height="4.367" style="fill:#fff"/><path d="M553.8934,126.59a2.1011,2.1011,0,1,1,2.1007,2.1008,2.1006,2.1006,0,0,1-2.1007-2.1008Z" style="fill:#fff"/><path d="M553.8934,141.1636a2.1011,2.1011,0,1,1,2.1007,2.1011,2.1011,2.1011,0,0,1-2.1007-2.1011Z" style="fill:#fff"/><path d="M553.8934,133.8766a2.1011,2.1011,0,1,1,2.1007,2.1008,2.101,2.101,0,0,1-2.1007-2.1008Z" style="fill:#fff"/><path d="M554.5217,120.7048a24.9372,24.9372,0,0,0-22.238-13.9957l-.0007-1.6225a26.3041,26.3041,0,0,1,24.0416,15.623l-1.8029-.0048Z" style="fill:#fff"/><path d="M554.5217,146.9274a24.9364,24.9364,0,0,1-22.238,13.9945l-.0007,1.6232a26.305,26.305,0,0,0,24.0416-15.6227l-1.8029.005Z" style="fill:#fff"/><path d="M508.6633,142.9931V129.8622l-2.09.3358v12.7951Zm.5672-16.8193a1.5633,1.5633,0,0,0-1.5736-1.5736,1.5851,1.5851,0,0,0-1.573,1.5993,1.5734,1.5734,0,0,0,3.1466-.0257Z" style="fill:#fff"/><path d="M519.3176,125.0645a5.1609,5.1609,0,0,0-2.8379-.7481,3.5466,3.5466,0,0,0-2.27.6707,3.5965,3.5965,0,0,0-1.4188,3.1469v2.0123h-1.2384v1.5219h1.2384v11.3249h2.1157V131.6682h2.94l.6189-1.5219h-3.5593V128.16c0-1.47.6187-2.27,1.7537-2.27a4.0677,4.0677,0,0,1,1.9091.593l.7484-1.4185Z" style="fill:#fff"/><path d="M530.1337,136.5436a7.6783,7.6783,0,0,0-1.4188-5.056,4.3962,4.3962,0,0,0-3.4313-1.599,4.9377,4.9377,0,0,0-3.7919,1.8831,9.7717,9.7717,0,0,0-.13-1.9606l-2.0631.3612a9.3148,9.3148,0,0,1,.2835,2.76V148.36l2.0123-.3872v-6.14a5.0218,5.0218,0,0,0,3.5341,1.4962,4.566,4.566,0,0,0,3.9731-2.3468,7.744,7.744,0,0,0,1.0316-4.4378Zm-2.1415.2578a7.4612,7.4612,0,0,1-.5418,3.2507,2.9635,2.9635,0,0,1-2.7083,1.599,4.33,4.33,0,0,1-3.1472-1.6765V133.5a4.4068,4.4068,0,0,1,3.4306-1.8054,2.5807,2.5807,0,0,1,2.3738,1.4185,9.6035,9.6035,0,0,1,.5929,3.6884Z" style="fill:#fff"/><path d="M543.135,136.776a8.155,8.155,0,0,0-1.1867-4.772,5.0919,5.0919,0,0,0-4.4109-2.2446c-3.3792,0-5.4689,2.5537-5.4689,6.7328,0,4.2309,2.0113,6.836,5.5458,6.836,3.2246,0,5.5207-2.2693,5.5207-6.5522Zm-2.2961.1549a7.6109,7.6109,0,0,1-.3872,2.7867,2.789,2.789,0,0,1-2.7857,1.9335,3.05,3.05,0,0,1-2.6051-1.2892,9.0237,9.0237,0,0,1-.8-4.2055,7.1775,7.1775,0,0,1,.6193-3.3529,2.9349,2.9349,0,0,1,2.6308-1.3927,2.9759,2.9759,0,0,1,2.735,1.651,9.0909,9.0909,0,0,1,.5928,3.8691Z" style="fill:#fff"/><path d="M549.1461,142.9664l-.4129-1.3153a1.4446,1.4446,0,0,1-.2584.0521c-.5675,0-.722-.2832-.722-1.29v-13.13a11.3005,11.3005,0,0,0-.3355-3.0438l-2.0123.3869a9.3328,9.3328,0,0,1,.31,2.6312V140.878a2.2362,2.2362,0,0,0,.6186,1.8319,2.1553,2.1553,0,0,0,1.5222.5409,2.54,2.54,0,0,0,1.29-.2844Z" style="fill:#fff"/><path d="M572.238,125.5783h-3.422v-7.0438h1.3334v5.8684h2.3218Z" style="fill:#fff"/><path d="M574.5037,123.41v.04a1.4545,1.4545,0,0,0,.2611.9323.9011.9011,0,0,0,.7459.3246,1.8037,1.8037,0,0,0,1.2122-.517l.4846.8108a2.6482,2.6482,0,0,1-1.8.72,2.2107,2.2107,0,0,1-.9322-.1929,2.0214,2.0214,0,0,1-.7132-.5419,2.4662,2.4662,0,0,1-.4523-.8465,3.6183,3.6183,0,0,1-.1584-1.1045,4.3435,4.3435,0,0,1,.14-1.1861,2.397,2.397,0,0,1,.4569-.8714,1.9722,1.9722,0,0,1,.6621-.527,1.939,1.939,0,0,1,.8389-.1726,2.1323,2.1323,0,0,1,.7831.1421,1.5112,1.5112,0,0,1,.597.4055,2.2633,2.2633,0,0,1,.4806.907,5.103,5.103,0,0,1,.1536,1.363v.3144Zm1.4639-1.0543a2.6587,2.6587,0,0,0-.0325-.466.9884.9884,0,0,0-.1164-.3143.6068.6068,0,0,0-.55-.3041.6269.6269,0,0,0-.55.289,1.4888,1.4888,0,0,0-.1958.8362v.02h1.4453Z" style="fill:#fff"/><path d="M581.1707,125.5783V122.092a1.04,1.04,0,0,0-.1073-.5475.42.42,0,0,0-.3777-.1619,1.1255,1.1255,0,0,0-.5038.1366,2.0608,2.0608,0,0,0-.485.34v3.7195h-1.268v-6q0-.3646-.023-.6944a2.6128,2.6128,0,0,0-.07-.4914l1.2776-.3242a3.582,3.582,0,0,1,.0649.5523q.019.34.0186.7146v1.0337q0,.1216-.0091.2533c-.0063.0879-.01.1485-.01.1826a1.75,1.75,0,0,1,.6159-.4054,1.9392,1.9392,0,0,1,.7363-.1521,1.5326,1.5326,0,0,1,.7926.1976.9617.9617,0,0,1,.4478.542c.0245.0744.0451.1437.0606.2078a1.9359,1.9359,0,0,1,.0372.2027c.01.0709.0154.1505.0186.2384s.0047.1924.0047.3139v3.6284Z" style="fill:#fff"/><path d="M586.355,121.575a.7254.7254,0,0,0-.3634-.1014.9778.9778,0,0,0-.7649.4359v3.6688h-1.25v-3.4661a7.0425,7.0425,0,0,0-.0511-.9121,3.4615,3.4615,0,0,0-.1259-.6081l1.1189-.3243a1.8622,1.8622,0,0,1,.1959.74,2.4526,2.4526,0,0,1,.4846-.5171.9917.9917,0,0,1,.6342-.2229,1.061,1.061,0,0,1,.2285.02,1.2638,1.2638,0,0,1,.2379.0911Z" style="fill:#fff"/><path d="M590.8865,123.9365a1.7606,1.7606,0,0,1-.1493.7348,1.6892,1.6892,0,0,1-.4149.5677,1.8792,1.8792,0,0,1-.6433.37,2.5188,2.5188,0,0,1-.8346.1318,3.9672,3.9672,0,0,1-1.93-.5982l.4474-.9929q.14.0909.3309.1976a3.7938,3.7938,0,0,0,.4011.1924,3.2178,3.2178,0,0,0,.4287.1421,1.7163,1.7163,0,0,0,.4244.0554.6421.6421,0,0,0,.4522-.167.5479.5479,0,0,0,.1817-.42.5038.5038,0,0,0-.177-.41,1.32,1.32,0,0,0-.5594-.2281l-.5594-.1116a1.5879,1.5879,0,0,1-.4945-.2027,1.3478,1.3478,0,0,1-.382-.3243,1.2447,1.2447,0,0,1-.2007-.4255,1.9062,1.9062,0,0,1-.07-.5068,1.7717,1.7717,0,0,1,.1306-.6893,1.4976,1.4976,0,0,1,.373-.5372,1.6861,1.6861,0,0,1,.5827-.3444,2.2437,2.2437,0,0,1,.76-.1216,2.697,2.697,0,0,1,.979.1568,7.2227,7.2227,0,0,1,.7273.3294l-.41.9122a3.2777,3.2777,0,0,0-.6294-.2887,1.82,1.82,0,0,0-.5456-.0863.6716.6716,0,0,0-.4383.137.4529.4529,0,0,0-.1678.37.3991.3991,0,0,0,.1354.32,1.2345,1.2345,0,0,0,.4616.2074l.578.1623a2.6482,2.6482,0,0,1,.3729.1267,1.4867,1.4867,0,0,1,.2566.1418,1.3537,1.3537,0,0,1,.1817.152,1.4274,1.4274,0,0,1,.14.1675A1.4459,1.4459,0,0,1,590.8865,123.9365Z" style="fill:#fff"/><path d="M594.4393,125.4671a2.4884,2.4884,0,0,1-1.0163.2328,1.59,1.59,0,0,1-.8255-.2075.9919.9919,0,0,1-.4616-.5527q-.0279-.0807-.0463-.152a.7271.7271,0,0,1-.0234-.152c-.0031-.0539-.0063-.12-.01-.1976s-.0047-.1773-.0047-.2989v-2.8176h-.4755v-.9323h.4755q0-.3849.0047-.6588a5.2394,5.2394,0,0,1,.042-.5677l1.2681-.3445q-.0375.3552-.0559.7653t-.0186.8057h1.1188l-.3171.9323h-.8017v2.6046a1.3723,1.3723,0,0,0,.1073.664.4786.4786,0,0,0,.4335.1674.7433.7433,0,0,0,.1818-.0253q.0979-.0255.2656-.076Z" style="fill:#fff"/><path d="M598.5139,125.7205a1.1376,1.1376,0,0,1-.373-.5068,1.5442,1.5442,0,0,1-.555.37,1.9065,1.9065,0,0,1-.7039.1267,1.715,1.715,0,0,1-.8952-.2332,1.0957,1.0957,0,0,1-.5127-.6081,1.9442,1.9442,0,0,1-.0791-.4054q-.0239-.2328-.0234-.6283v-3.3244l1.2309-.2534v3.3347a4.0759,4.0759,0,0,0,.0277.5471,1.285,1.285,0,0,0,.0748.3041.354.354,0,0,0,.1722.1773.5648.5648,0,0,0,.2661.0658.8481.8481,0,0,0,.4659-.1521.7493.7493,0,0,0,.3076-.3444v-3.6486l1.1937-.2736V124.23a1.7768,1.7768,0,0,0,.0744.5119,1.3318,1.3318,0,0,0,.2146.4307Z" style="fill:#fff"/><path d="M603.3906,125.5783V122.092a1.0408,1.0408,0,0,0-.1073-.5475.42.42,0,0,0-.3777-.1619,1.1237,1.1237,0,0,0-.5036.1366,2.0587,2.0587,0,0,0-.485.34v3.7195h-1.2681v-6q0-.3646-.0229-.6944a2.6212,2.6212,0,0,0-.07-.4914l1.2776-.3242a3.5945,3.5945,0,0,1,.0649.5523q.019.34.0186.7146v1.0337c0,.0811-.0032.1655-.0091.2533s-.01.1485-.01.1826a1.75,1.75,0,0,1,.6156-.4054,1.94,1.94,0,0,1,.7364-.1521,1.5329,1.5329,0,0,1,.7926.1976.9621.9621,0,0,1,.4478.542c.0245.0744.0451.1437.06.2078a1.91,1.91,0,0,1,.0372.2027c.01.0709.0155.1505.0187.2384s.0047.1924.0047.3139v3.6284Z" style="fill:#fff"/><path d="M608.0713,125.5581a1.8962,1.8962,0,0,1-.7459.1418,1.2633,1.2633,0,0,1-.7-.1924.9821.9821,0,0,1-.41-.5171,1.2813,1.2813,0,0,1-.0558-.1924c-.0127-.061-.0234-.1318-.0329-.213s-.0154-.1821-.0186-.304-.0047-.2736-.0047-.4561v-3.8715q0-.5167-.0139-.8615t-.0511-.6992l1.2772-.3143a4.1443,4.1443,0,0,1,.0515.5067q.0136.294.0138.8413V123.47q0,.3348.0048.5372c.0031.1354.0059.2435.0091.3242a.7765.7765,0,0,0,.0233.1825.5918.5918,0,0,0,.0468.1117.2608.2608,0,0,0,.2517.1417h.0654a.2013.2013,0,0,0,.0744-.02Z" style="fill:#fff"/><path d="M613.4417,119.234a1.9135,1.9135,0,0,0-.3029-.1421.7071.7071,0,0,0-.21-.03.4948.4948,0,0,0-.3825.152.6231.6231,0,0,0-.14.4359v.74h1.2122l-.3171.9323h-.8856v4.2567h-1.2218v-4.2567h-.4287v-.9323h.4568q-.0189-.1622-.0324-.35t-.0143-.36a1.6577,1.6577,0,0,1,.4011-1.1909,1.497,1.497,0,0,1,1.1374-.42,2.0765,2.0765,0,0,1,.5736.076,2.3686,2.3686,0,0,1,.5547.2482Z" style="fill:#fff"/><path d="M617.3579,125.7205a1.1367,1.1367,0,0,1-.3729-.5068,1.5437,1.5437,0,0,1-.5551.37,1.9061,1.9061,0,0,1-.7039.1267,1.7149,1.7149,0,0,1-.8951-.2332,1.0953,1.0953,0,0,1-.5127-.6081,1.9438,1.9438,0,0,1-.0792-.4054q-.0237-.2328-.0234-.6283v-3.3244l1.2309-.2534v3.3347a4.0759,4.0759,0,0,0,.0277.5471,1.29,1.29,0,0,0,.0748.3041.354.354,0,0,0,.1722.1773.5654.5654,0,0,0,.2661.0658.8482.8482,0,0,0,.466-.1521.75.75,0,0,0,.3076-.3444v-3.6486l1.1936-.2736V124.23a1.78,1.78,0,0,0,.0744.5119,1.3318,1.3318,0,0,0,.2146.4307ZM615.8,119.1426a.7865.7865,0,0,1-.2094.5523.6665.6665,0,0,1-.5083.228.6556.6556,0,0,1-.4989-.228.7868.7868,0,0,1-.21-.5523.7756.7756,0,0,1,.2146-.5523.679.679,0,0,1,.5127-.228.6407.6407,0,0,1,.494.228A.7954.7954,0,0,1,615.8,119.1426Zm2.0049,0a.7847.7847,0,0,1-.21.5523.665.665,0,0,1-.5079.228.6552.6552,0,0,1-.4988-.228.8253.8253,0,0,1,.0043-1.1046.68.68,0,0,1,.5131-.228.6423.6423,0,0,1,.4941.228A.7973.7973,0,0,1,617.8053,119.1426Z" style="fill:#fff"/><path d="M621.824,121.575a.7251.7251,0,0,0-.3634-.1014.9779.9779,0,0,0-.7649.4359v3.6688h-1.2494v-3.4661a7.06,7.06,0,0,0-.0511-.9121,3.4615,3.4615,0,0,0-.1259-.6081l1.1188-.3243a1.8622,1.8622,0,0,1,.196.74,2.4526,2.4526,0,0,1,.4846-.5171.9913.9913,0,0,1,.6342-.2229,1.0606,1.0606,0,0,1,.2284.02,1.2642,1.2642,0,0,1,.238.0911Z" style="fill:#fff"/><path d="M571.3615,136.98h-1.1842l-2.2006-7.0945h1.4267l1.0722,3.6688q.0746.2334.1493.5373t.1493.6892q.0279-.1621.0744-.35c.0311-.1251.0637-.25.098-.3749s.0683-.2466.1025-.365.0667-.2245.098-.3191l1.1-3.4867h1.3706Z" style="fill:#fff"/><path d="M575.1192,134.7608v.04a1.4543,1.4543,0,0,0,.2609.9323.9015.9015,0,0,0,.7458.3247,1.8028,1.8028,0,0,0,1.2123-.5171l.4849.8108a2.6481,2.6481,0,0,1-1.8.72,2.2116,2.2116,0,0,1-.9324-.1928,2.0217,2.0217,0,0,1-.7132-.542,2.4683,2.4683,0,0,1-.4523-.8464,3.62,3.62,0,0,1-.1583-1.1046,4.3478,4.3478,0,0,1,.14-1.1861,2.3994,2.3994,0,0,1,.4569-.8714,1.9731,1.9731,0,0,1,.6621-.5269,1.9393,1.9393,0,0,1,.8391-.1726,2.1338,2.1338,0,0,1,.7831.1421,1.5157,1.5157,0,0,1,.597.4054,2.2647,2.2647,0,0,1,.48.907,5.091,5.091,0,0,1,.1536,1.3631v.3143Zm1.464-1.0543a2.6136,2.6136,0,0,0-.0329-.4659.9656.9656,0,0,0-.1164-.3144.6062.6062,0,0,0-.55-.304.6271.6271,0,0,0-.55.289,1.49,1.49,0,0,0-.1955.8361v.02h1.4454Z" style="fill:#fff"/><path d="M581.4225,132.9262a.7256.7256,0,0,0-.3635-.1013.9778.9778,0,0,0-.7648.4359V136.93h-1.25v-3.4661a7.043,7.043,0,0,0-.0511-.9122,3.4655,3.4655,0,0,0-.1259-.6081l1.1188-.3242a1.86,1.86,0,0,1,.196.74,2.4558,2.4558,0,0,1,.4848-.517.9912.9912,0,0,1,.6342-.2229,1.0546,1.0546,0,0,1,.2285.02,1.2576,1.2576,0,0,1,.2379.091Z" style="fill:#fff"/><path d="M587.1286,132.3082a1.4162,1.4162,0,0,1-.41.2938,1.1359,1.1359,0,0,1-.4663.091,1.5878,1.5878,0,0,1-.1818-.01c-.059-.0067-.1073-.0134-.1445-.02a1.36,1.36,0,0,1,.21.3849,1.4267,1.4267,0,0,1,.07.4663,1.4613,1.4613,0,0,1-.1306.6184,1.4,1.4,0,0,1-.3682.4862,1.7923,1.7923,0,0,1-.56.32,2.0533,2.0533,0,0,1-.7039.1164h-.0839a.9138.9138,0,0,1-.1026-.01,2.3873,2.3873,0,0,0-.3682.2177.2672.2672,0,0,0-.1259.2079q0,.1216.2051.1215l.6715.01a3.2277,3.2277,0,0,1,.867.1113,1.3855,1.3855,0,0,1,.578.3547,1.504,1.504,0,0,1,.41,1.1049,1.5941,1.5941,0,0,1-.3824,1.0741,1.7167,1.7167,0,0,1-.82.5171,3.6605,3.6605,0,0,1-1.063.152,4.257,4.257,0,0,1-.9977-.1168,1.68,1.68,0,0,1-.8112-.4406,1.27,1.27,0,0,1-.3919-.9225,1.1292,1.1292,0,0,1,.0376-.3294,1.7033,1.7033,0,0,1,.0744-.1975h1.1561a.6632.6632,0,0,0-.0464.1571,1.3091,1.3091,0,0,0-.01.1774.5467.5467,0,0,0,.2285.4763,1.1466,1.1466,0,0,0,.6667.1623,2.4652,2.4652,0,0,0,.4382-.0356.8861.8861,0,0,0,.3449-.137.7159.7159,0,0,0,.224-.2281.5608.5608,0,0,0,.084-.2989.4881.4881,0,0,0-.2518-.4814,1.4762,1.4762,0,0,0-.6247-.1366l-.5317-.01a3.0943,3.0943,0,0,1-1.147-.1623.5466.5466,0,0,1-.2656-.2431.8727.8727,0,0,1-.0978-.4358,1.0605,1.0605,0,0,1,.0281-.2431.5846.5846,0,0,1,.1164-.2332.9348.9348,0,0,1,.2609-.213,1.9694,1.9694,0,0,1,.4711-.1821,1.3313,1.3313,0,0,1-1.0258-1.44,1.7442,1.7442,0,0,1,.1445-.7194,1.574,1.574,0,0,1,.4058-.5522,1.8558,1.8558,0,0,1,.6339-.3548,2.562,2.562,0,0,1,.83-.1267,2.6213,2.6213,0,0,1,.401.03,4.4162,4.4162,0,0,1,.4569.1014c.1306.034.2407.061.331.0811a1.1766,1.1766,0,0,0,.2565.0305,1.243,1.243,0,0,0,.5175-.1164,1.6136,1.6136,0,0,0,.4707-.3294Zm-2.21,1.1046a.7722.7722,0,0,0-.2-.5677.7458.7458,0,0,0-.5546-.2027.73.73,0,0,0-.55.2027.7834.7834,0,0,0-.1956.5677.7022.7022,0,0,0,.2051.5677.7974.7974,0,0,0,.5313.1722A.6651.6651,0,0,0,584.9187,133.4128Z" style="fill:#fff"/><path d="M589.8049,136.9094a1.898,1.898,0,0,1-.7459.1417,1.2625,1.2625,0,0,1-.7-.1924.9821.9821,0,0,1-.41-.5171,1.27,1.27,0,0,1-.0558-.1924c-.0127-.0609-.0234-.1318-.0329-.213s-.0154-.1821-.0186-.304-.0048-.2736-.0048-.4561v-3.8715q0-.5166-.0138-.8615t-.0511-.6991l1.2772-.3144a4.148,4.148,0,0,1,.0514.5068q.0138.294.0139.8413v4.0437q0,.3349.0048.5372c.0031.1354.0059.2435.0091.3243a.7727.7727,0,0,0,.0233.1825.5945.5945,0,0,0,.0467.1116.2611.2611,0,0,0,.2518.1418h.0653a.2032.2032,0,0,0,.0745-.02Z" style="fill:#fff"/><path d="M591.8093,134.7608v.04a1.4567,1.4567,0,0,0,.2609.9323.9017.9017,0,0,0,.7459.3247,1.8026,1.8026,0,0,0,1.2122-.5171l.485.8108a2.6485,2.6485,0,0,1-1.8.72,2.2114,2.2114,0,0,1-.9323-.1928,2.0251,2.0251,0,0,1-.7134-.542,2.47,2.47,0,0,1-.4521-.8464,3.62,3.62,0,0,1-.1584-1.1046,4.3514,4.3514,0,0,1,.14-1.1861,2.4022,2.4022,0,0,1,.4568-.8714,1.9738,1.9738,0,0,1,.662-.5269,1.9409,1.9409,0,0,1,.8393-.1726,2.1338,2.1338,0,0,1,.7831.1421,1.5164,1.5164,0,0,1,.597.4054,2.2646,2.2646,0,0,1,.48.907,5.091,5.091,0,0,1,.1536,1.3631v.3143Zm1.464-1.0543a2.6246,2.6246,0,0,0-.0328-.4659.97.97,0,0,0-.1164-.3144.6062.6062,0,0,0-.55-.304.6258.6258,0,0,0-.55.289,1.4858,1.4858,0,0,0-.196.8361v.02h1.4454Z" style="fill:#fff"/><path d="M597.1334,130.3113a.8506.8506,0,0,1-.2237.5982.72.72,0,0,1-.55.2431.7091.7091,0,0,1-.5408-.2431.8519.8519,0,0,1-.2237-.5982.84.84,0,0,1,.2284-.5978.7324.7324,0,0,1,.5547-.2431.6942.6942,0,0,1,.5364.2431A.8627.8627,0,0,1,597.1334,130.3113Zm-1.3988,6.6183v-5.098l1.25-.2126V136.93Z" style="fill:#fff"/><path d="M601.9728,136.3416q-.14.1521-.2236.2281a1.5046,1.5046,0,0,1-.2146.1572,2.0088,2.0088,0,0,1-.5361.2434,2.298,2.298,0,0,1-.63.0808,1.8266,1.8266,0,0,1-1.5337-.7043,3.15,3.15,0,0,1-.5455-1.9712,3.5027,3.5027,0,0,1,.2795-1.4949,2.3613,2.3613,0,0,1,.7-.907,2.1073,2.1073,0,0,1,.5642-.2787,1.9018,1.9018,0,0,1,1.105-.0456,1.7239,1.7239,0,0,1,.4382.1723,2.35,2.35,0,0,1,.2189.152c.059.0471.1414.1184.2471.2126l-.6061.8919a1.6122,1.6122,0,0,0-.3821-.2989.7851.7851,0,0,0-.3729-.1065.6457.6457,0,0,0-.6156.4106,3.3113,3.3113,0,0,0-.1956,1.3326,4.4429,4.4429,0,0,0,.0606.8262,1.257,1.257,0,0,0,.1817.4814.6618.6618,0,0,0,.5594.2938,1.2868,1.2868,0,0,0,.8579-.4256l.0744-.0709Z" style="fill:#fff"/><path d="M605.7865,136.93v-3.4863a1.04,1.04,0,0,0-.1073-.5476.42.42,0,0,0-.3776-.1619,1.1237,1.1237,0,0,0-.5036.1366,2.06,2.06,0,0,0-.485.34V136.93h-1.2681v-6q0-.3647-.0229-.6944a2.6212,2.6212,0,0,0-.07-.4913l1.2776-.3243a3.61,3.61,0,0,1,.0649.5523q.019.34.0186.7146V131.72c0,.0812-.0032.1655-.0091.2534s-.01.1484-.01.1825a1.75,1.75,0,0,1,.6156-.4054,1.94,1.94,0,0,1,.7364-.152,1.5328,1.5328,0,0,1,.7926.1975.9618.9618,0,0,1,.4477.542c.0246.0744.0452.1437.0606.2079a1.901,1.901,0,0,1,.0372.2027c.01.0708.0155.15.0186.2383s.0048.1924.0048.3139V136.93Z" style="fill:#fff"/><path d="M609.6652,134.7608v.04a1.4567,1.4567,0,0,0,.2609.9323.9016.9016,0,0,0,.7458.3247,1.8027,1.8027,0,0,0,1.2123-.5171l.485.8108a2.6485,2.6485,0,0,1-1.8.72,2.2111,2.2111,0,0,1-.9323-.1928,2.0263,2.0263,0,0,1-.7135-.542,2.4714,2.4714,0,0,1-.4521-.8464,3.62,3.62,0,0,1-.1583-1.1046,4.3556,4.3556,0,0,1,.14-1.1861,2.404,2.404,0,0,1,.4569-.8714,1.9725,1.9725,0,0,1,.6619-.5269,1.9409,1.9409,0,0,1,.8393-.1726,2.1338,2.1338,0,0,1,.7831.1421,1.515,1.515,0,0,1,.597.4054,2.2647,2.2647,0,0,1,.48.907,5.091,5.091,0,0,1,.1536,1.3631v.3143Zm1.464-1.0543a2.6136,2.6136,0,0,0-.0329-.4659.9656.9656,0,0,0-.1164-.3144.6062.6062,0,0,0-.55-.304.626.626,0,0,0-.55.289,1.4867,1.4867,0,0,0-.1959.8361v.02h1.4454Z" style="fill:#fff"/><path d="M616.127,136.93v-3.3751a1.3824,1.3824,0,0,0-.0886-.6029.347.347,0,0,0-.331-.1572.8963.8963,0,0,0-.42.1267,1.9881,1.9881,0,0,0-.4477.34V136.93h-1.25v-3.76a4.7455,4.7455,0,0,0-.042-.6437,3.3429,3.3429,0,0,0-.1258-.5725l1.11-.3448a1.3862,1.3862,0,0,1,.1773.6488q.14-.1116.2657-.2027a3.1575,3.1575,0,0,1,.2842-.1825,1.49,1.49,0,0,1,.4149-.1674,1.886,1.886,0,0,1,.443-.0555,1.2816,1.2816,0,0,1,.7178.2075,1.03,1.03,0,0,1,.4292.5424,2.3687,2.3687,0,0,1,.093.74v3.79Z" style="fill:#fff"/><path d="M621.8141,136.93a1.1441,1.1441,0,0,1-.0744-.3041,1.5365,1.5365,0,0,1-1.1.4359,1.7638,1.7638,0,0,1-.8207-.1877,1.8083,1.8083,0,0,1-.62-.5269,2.5057,2.5057,0,0,1-.3963-.8259,3.9693,3.9693,0,0,1-.14-1.0946,3.8749,3.8749,0,0,1,.1492-1.11,2.7545,2.7545,0,0,1,.42-.8666,1.9088,1.9088,0,0,1,.6433-.5626,1.741,1.741,0,0,1,.83-.1976,1.2425,1.2425,0,0,1,.8484.2938,2.0132,2.0132,0,0,1-.0281-.3088q-.0094-.228-.0091-.4612V129.43l1.24.213v5.3918q0,.4762.0138.8056t.042.5476a2.9116,2.9116,0,0,0,.061.3444,1.6861,1.6861,0,0,0,.0605.1976Zm-.28-3.8209a1.0238,1.0238,0,0,0-.68-.3345.6373.6373,0,0,0-.6109.3955,3.0939,3.0939,0,0,0-.1912,1.2669,4.8571,4.8571,0,0,0,.042.6991,1.2516,1.2516,0,0,0,.1445.4561.601.601,0,0,0,.27.2482.9911.9911,0,0,0,.41.0761.6583.6583,0,0,0,.35-.1065.9724.9724,0,0,0,.2656-.2281Z" style="fill:#fff"/><path d="M625.4137,134.7608v.04a1.4567,1.4567,0,0,0,.2609.9323.9016.9016,0,0,0,.7458.3247,1.8027,1.8027,0,0,0,1.2123-.5171l.485.8108a2.6485,2.6485,0,0,1-1.8.72,2.2111,2.2111,0,0,1-.9323-.1928,2.0254,2.0254,0,0,1-.7135-.542,2.4714,2.4714,0,0,1-.4521-.8464,3.62,3.62,0,0,1-.1583-1.1046,4.3556,4.3556,0,0,1,.14-1.1861,2.4024,2.4024,0,0,1,.4569-.8714,1.9725,1.9725,0,0,1,.6619-.5269,1.9409,1.9409,0,0,1,.8393-.1726,2.1338,2.1338,0,0,1,.7831.1421,1.515,1.515,0,0,1,.597.4054,2.2647,2.2647,0,0,1,.48.907,5.091,5.091,0,0,1,.1536,1.3631v.3143Zm1.464-1.0543a2.6136,2.6136,0,0,0-.0329-.4659.9656.9656,0,0,0-.1164-.3144.6062.6062,0,0,0-.55-.304.626.626,0,0,0-.55.289,1.4867,1.4867,0,0,0-.1959.8361v.02h1.4454Z" style="fill:#fff"/><path d="M636.0614,132.0548a2.5342,2.5342,0,0,1-.2938,1.2364,1.9286,1.9286,0,0,1-.825.8108,1.553,1.553,0,0,1-.2285.1014,2.1531,2.1531,0,0,1-.2613.0709,2.6445,2.6445,0,0,1-.34.0455q-.1961.0154-.4664.0154h-.7178V136.93H631.623v-7.0439h1.7063q.41,0,.6948.02a3.3145,3.3145,0,0,1,.485.0661,1.7011,1.7011,0,0,1,.34.1113c.0935.0443.1865.093.28.1472a1.7969,1.7969,0,0,1,.6948.7447A2.3671,2.3671,0,0,1,636.0614,132.0548Zm-1.4264.03a1.1917,1.1917,0,0,0-.2285-.7751.7914.7914,0,0,0-.6481-.2788h-.83V133.18h.6806a3.1009,3.1009,0,0,0,.331-.015.8732.8732,0,0,0,.2331-.0559.4976.4976,0,0,0,.1679-.1116.9093.9093,0,0,0,.135-.1821,1.04,1.04,0,0,0,.1211-.3092A1.97,1.97,0,0,0,634.635,132.0849Z" style="fill:#fff"/><path d="M641.0782,134.3146a3.9813,3.9813,0,0,1-.1445,1.1454,2.5574,2.5574,0,0,1-.4525.8615,2,2,0,0,1-.6433.5269,2.0209,2.0209,0,0,1-.9324.1928,1.9909,1.9909,0,0,1-.8812-.1928,1.9421,1.9421,0,0,1-.6758-.542,2.5435,2.5435,0,0,1-.4336-.8464,3.7239,3.7239,0,0,1-.154-1.1046,3.7742,3.7742,0,0,1,.154-1.11,2.658,2.658,0,0,1,.4336-.8615,1.9021,1.9021,0,0,1,.6758-.5526,1.9907,1.9907,0,0,1,.8812-.1924,1.95,1.95,0,0,1,1.6224.78,2.364,2.364,0,0,1,.42.8108A3.8991,3.8991,0,0,1,641.0782,134.3146Zm-1.3615-.01a2.617,2.617,0,0,0-.2518-1.3884.6285.6285,0,0,0-.5408-.2739.6066.6066,0,0,0-.3963.1421.7789.7789,0,0,0-.247.3852,2.5542,2.5542,0,0,0-.0978.4862,5.9373,5.9373,0,0,0-.0328.669,3.89,3.89,0,0,0,.1587,1.3073.6184.6184,0,0,0,.2657.3195.7216.7216,0,0,0,.3681.1065.6135.6135,0,0,0,.5923-.4157A3.588,3.588,0,0,0,639.7167,134.3047Z" style="fill:#fff"/><path d="M644.2577,136.9094a1.898,1.898,0,0,1-.7459.1417,1.2619,1.2619,0,0,1-.6995-.1924.9818.9818,0,0,1-.41-.5171,1.2932,1.2932,0,0,1-.0558-.1924c-.0127-.0609-.0234-.1318-.0329-.213s-.0154-.1821-.0186-.304-.0047-.2736-.0047-.4561v-3.8715q0-.5166-.0139-.8615t-.0511-.6991l1.2772-.3144a4.1264,4.1264,0,0,1,.0515.5068q.0136.294.0138.8413v4.0437q0,.3349.0048.5372c.0032.1354.0059.2435.0091.3243a.7771.7771,0,0,0,.0234.1825.5879.5879,0,0,0,.0467.1116.261.261,0,0,0,.2518.1418h.0653a.2033.2033,0,0,0,.0744-.02Z" style="fill:#fff"/><path d="M646.5884,130.3113a.8506.8506,0,0,1-.2237.5982.72.72,0,0,1-.55.2431.7091.7091,0,0,1-.5408-.2431.8519.8519,0,0,1-.2237-.5982.84.84,0,0,1,.2284-.5978.7324.7324,0,0,1,.5547-.2431.6942.6942,0,0,1,.5364.2431A.8627.8627,0,0,1,646.5884,130.3113ZM645.19,136.93v-5.098l1.25-.2126V136.93Z" style="fill:#fff"/><path d="M650.4116,136.8183a2.4884,2.4884,0,0,1-1.0163.2328,1.59,1.59,0,0,1-.8255-.2075.9921.9921,0,0,1-.4616-.5526q-.0279-.0808-.0463-.1521a.7261.7261,0,0,1-.0234-.152c-.0031-.0538-.0063-.1195-.01-.1975s-.0047-.1774-.0047-.2989v-2.8177h-.4755v-.9323h.4755q0-.3847.0047-.6588a5.2413,5.2413,0,0,1,.042-.5677l1.2681-.3444q-.0375.355-.0559.7652t-.0186.8057h1.1189l-.3172.9323h-.8017v2.6047a1.3721,1.3721,0,0,0,.1073.6639.4786.4786,0,0,0,.4335.1675.7437.7437,0,0,0,.1818-.0254q.0979-.0255.2656-.076Z" style="fill:#fff"/><path d="M652.8824,130.3113a.8506.8506,0,0,1-.2237.5982.72.72,0,0,1-.55.2431.7091.7091,0,0,1-.5408-.2431.8519.8519,0,0,1-.2237-.5982.84.84,0,0,1,.2284-.5978.7326.7326,0,0,1,.5547-.2431.694.694,0,0,1,.5364.2431A.8627.8627,0,0,1,652.8824,130.3113Zm-1.3987,6.6183v-5.098l1.2494-.2126V136.93Z" style="fill:#fff"/><path d="M654.2716,136.93v-5.8479q0-.3444-.0139-.6437t-.07-.7043l1.2589-.3345a6.0912,6.0912,0,0,1,.0606.73q.0142.4359.0138.9525V136.93Zm2.8813,0-1.6037-2.9392,1.2213-2.25h1.5013l-1.52,2.1687,1.8742,3.02Z" style="fill:#fff"/><path d="M663.829,136.93h-1.1469l-.4288-1.7836q-.0748-.3141-.1492-.654t-.1212-.603l-.0748-.5166c-.0063.0538-.0123.1045-.0186.152l-.0186.1315c-.0064.0407-.0155.0914-.0281.152s-.0277.1386-.0464.2332q-.0374.1728-.0886.4054t-.1073.4917q-.0558.2583-.1164.5016t-.0982.4256l-.2423,1.0642h-1.1655l-1.3053-5.098,1.24-.1521.3915,1.997q.0374.2025.0839.4509t.084.4814q.0373.2334.0653.42c.0186.1251.0313.2115.0372.2586q.019-.1521.0562-.37t.084-.4664q.0462-.2483.0977-.5016t.1073-.4664l.4474-1.7431h1.175l.3821,1.7127q.0652.3247.1259.6287t.1073.5471q.0468.2435.0791.42c.0218.1184.0361.198.042.2384q.0095-.0808.0329-.2637t.0605-.4205q.0375-.2381.0792-.5016t.0887-.5067l.3634-1.8548h1.2871Z" style="fill:#fff"/><path d="M667.4281,130.3113a.85.85,0,0,1-.2237.5982.7192.7192,0,0,1-.55.2431.7093.7093,0,0,1-.5408-.2431.8523.8523,0,0,1-.2236-.5982.84.84,0,0,1,.2284-.5978.7324.7324,0,0,1,.5546-.2431.6942.6942,0,0,1,.5365.2431A.8626.8626,0,0,1,667.4281,130.3113Zm-1.3987,6.6183v-5.098l1.25-.2126V136.93Z" style="fill:#fff"/><path d="M672.3238,135.2878a1.7624,1.7624,0,0,1-.1492.7348,1.6915,1.6915,0,0,1-.4149.5677,1.88,1.88,0,0,1-.6434.37,2.5186,2.5186,0,0,1-.8345.1319,3.9679,3.9679,0,0,1-1.93-.5982l.4473-.9929c.0935.06.2035.1266.331.1975a3.782,3.782,0,0,0,.401.1924,3.2191,3.2191,0,0,0,.4288.1421,1.7112,1.7112,0,0,0,.4244.0555.6419.6419,0,0,0,.4521-.1671.5474.5474,0,0,0,.1817-.42.5039.5039,0,0,0-.1769-.4106,1.3191,1.3191,0,0,0-.5594-.228l-.5594-.1117a1.5812,1.5812,0,0,1-.4945-.2027,1.3468,1.3468,0,0,1-.3821-.3242,1.2452,1.2452,0,0,1-.2007-.4256,1.91,1.91,0,0,1-.07-.5068,1.7708,1.7708,0,0,1,.1307-.6892,1.4981,1.4981,0,0,1,.3729-.5373,1.69,1.69,0,0,1,.5828-.3444,2.2452,2.2452,0,0,1,.76-.1215,2.698,2.698,0,0,1,.9791.1567,7.2327,7.2327,0,0,1,.7272.3294l-.41.9122a3.2861,3.2861,0,0,0-.63-.2886,1.8193,1.8193,0,0,0-.5455-.0863.6706.6706,0,0,0-.4383.137.4526.4526,0,0,0-.1679.37.3994.3994,0,0,0,.1354.32,1.2374,1.2374,0,0,0,.4617.2075l.578.1623a2.6443,2.6443,0,0,1,.3729.1267,1.48,1.48,0,0,1,.2566.1417,1.3753,1.3753,0,0,1,.1817.152,1.417,1.417,0,0,1,.14.1675A1.446,1.446,0,0,1,672.3238,135.2878Z" style="fill:#fff"/><path d="M676.995,135.2878a1.7609,1.7609,0,0,1-.1492.7348,1.6915,1.6915,0,0,1-.4149.5677,1.88,1.88,0,0,1-.6434.37,2.5182,2.5182,0,0,1-.8345.1319,3.9679,3.9679,0,0,1-1.93-.5982l.4473-.9929c.0935.06.2035.1266.331.1975a3.7743,3.7743,0,0,0,.4011.1924,3.213,3.213,0,0,0,.4287.1421,1.7112,1.7112,0,0,0,.4244.0555.6418.6418,0,0,0,.4521-.1671.5475.5475,0,0,0,.1818-.42.504.504,0,0,0-.177-.4106,1.3186,1.3186,0,0,0-.5594-.228l-.5594-.1117a1.5831,1.5831,0,0,1-.4945-.2027,1.3463,1.3463,0,0,1-.382-.3242,1.2471,1.2471,0,0,1-.2008-.4256,1.91,1.91,0,0,1-.07-.5068,1.7708,1.7708,0,0,1,.1306-.6892,1.4981,1.4981,0,0,1,.3729-.5373,1.6906,1.6906,0,0,1,.5828-.3444,2.2456,2.2456,0,0,1,.76-.1215,2.6973,2.6973,0,0,1,.9791.1567,7.245,7.245,0,0,1,.7273.3294l-.41.9122a3.2833,3.2833,0,0,0-.63-.2886,1.8193,1.8193,0,0,0-.5455-.0863.671.671,0,0,0-.4383.137.4526.4526,0,0,0-.1678.37.3991.3991,0,0,0,.1354.32,1.236,1.236,0,0,0,.4616.2075l.578.1623a2.64,2.64,0,0,1,.3729.1267,1.48,1.48,0,0,1,.2566.1417,1.3753,1.3753,0,0,1,.1817.152,1.417,1.417,0,0,1,.14.1675A1.446,1.446,0,0,1,676.995,135.2878Z" style="fill:#fff"/><path d="M679.2794,134.7608v.04a1.4567,1.4567,0,0,0,.2609.9323.9017.9017,0,0,0,.7459.3247,1.8026,1.8026,0,0,0,1.2122-.5171l.485.8108a2.6485,2.6485,0,0,1-1.8.72,2.2114,2.2114,0,0,1-.9323-.1928,2.0251,2.0251,0,0,1-.7134-.542,2.47,2.47,0,0,1-.4522-.8464,3.62,3.62,0,0,1-.1583-1.1046,4.3556,4.3556,0,0,1,.14-1.1861,2.404,2.404,0,0,1,.4569-.8714,1.9734,1.9734,0,0,1,.6619-.5269,1.941,1.941,0,0,1,.8394-.1726,2.1329,2.1329,0,0,1,.783.1421,1.5161,1.5161,0,0,1,.5971.4054,2.2646,2.2646,0,0,1,.48.907,5.091,5.091,0,0,1,.1536,1.3631v.3143Zm1.464-1.0543a2.6246,2.6246,0,0,0-.0328-.4659.97.97,0,0,0-.1164-.3144.6062.6062,0,0,0-.55-.304.6258.6258,0,0,0-.55.289,1.4858,1.4858,0,0,0-.196.8361v.02h1.4454Z" style="fill:#fff"/><path d="M685.7413,136.93v-3.3751a1.38,1.38,0,0,0-.0887-.6029.347.347,0,0,0-.331-.1572.8963.8963,0,0,0-.42.1267,1.99,1.99,0,0,0-.4477.34V136.93h-1.25v-3.76a4.762,4.762,0,0,0-.0419-.6437,3.3522,3.3522,0,0,0-.1259-.5725l1.11-.3448a1.385,1.385,0,0,1,.1773.6488q.14-.1116.2657-.2027a3.1575,3.1575,0,0,1,.2842-.1825,1.4914,1.4914,0,0,1,.4149-.1674,1.8869,1.8869,0,0,1,.4431-.0555,1.2815,1.2815,0,0,1,.7177.2075,1.03,1.03,0,0,1,.4292.5424,2.3687,2.3687,0,0,1,.093.74v3.79Z" style="fill:#fff"/><path d="M692.0349,135.2878a1.7609,1.7609,0,0,1-.1493.7348,1.69,1.69,0,0,1-.4149.5677,1.8781,1.8781,0,0,1-.6433.37,2.5188,2.5188,0,0,1-.8346.1319,3.9682,3.9682,0,0,1-1.93-.5982l.4474-.9929q.14.0907.331.1975a3.7633,3.7633,0,0,0,.401.1924,3.2191,3.2191,0,0,0,.4288.1421,1.7106,1.7106,0,0,0,.4244.0555.6421.6421,0,0,0,.4521-.1671.5477.5477,0,0,0,.1817-.42.504.504,0,0,0-.177-.4106,1.318,1.318,0,0,0-.5594-.228l-.5594-.1117a1.5831,1.5831,0,0,1-.4945-.2027,1.3477,1.3477,0,0,1-.382-.3242,1.2452,1.2452,0,0,1-.2007-.4256,1.91,1.91,0,0,1-.07-.5068,1.7708,1.7708,0,0,1,.1306-.6892,1.4983,1.4983,0,0,1,.373-.5373,1.6892,1.6892,0,0,1,.5827-.3444,2.2462,2.2462,0,0,1,.76-.1215,2.6971,2.6971,0,0,1,.979.1567,7.2246,7.2246,0,0,1,.7273.3294l-.41.9122a3.2861,3.2861,0,0,0-.63-.2886,1.82,1.82,0,0,0-.5456-.0863.6705.6705,0,0,0-.4382.137.4524.4524,0,0,0-.1679.37.3991.3991,0,0,0,.1354.32,1.2376,1.2376,0,0,0,.4616.2075l.578.1623a2.6416,2.6416,0,0,1,.373.1267,1.4789,1.4789,0,0,1,.2565.1417,1.3688,1.3688,0,0,1,.1817.152,1.4274,1.4274,0,0,1,.14.1675A1.446,1.446,0,0,1,692.0349,135.2878Z" style="fill:#fff"/><path d="M696.65,136.3416q-.14.1521-.2237.2281a1.4989,1.4989,0,0,1-.2146.1572,2.0081,2.0081,0,0,1-.536.2434,2.2991,2.2991,0,0,1-.63.0808,1.8264,1.8264,0,0,1-1.5337-.7043,3.15,3.15,0,0,1-.5456-1.9712,3.5042,3.5042,0,0,1,.2795-1.4949,2.3614,2.3614,0,0,1,.7-.907,2.1066,2.1066,0,0,1,.5641-.2787,1.9018,1.9018,0,0,1,1.105-.0456,1.7261,1.7261,0,0,1,.4383.1723,2.3636,2.3636,0,0,1,.2189.152c.059.0471.1413.1184.247.2126l-.6061.8919a1.6138,1.6138,0,0,0-.382-.2989.7858.7858,0,0,0-.373-.1065.6457.6457,0,0,0-.6156.4106,3.3131,3.3131,0,0,0-.1956,1.3326,4.4429,4.4429,0,0,0,.0606.8262,1.26,1.26,0,0,0,.1817.4814.6618.6618,0,0,0,.5594.2938,1.2866,1.2866,0,0,0,.8579-.4256l.0745-.0709Z" style="fill:#fff"/><path d="M700.464,136.93v-3.4863a1.0409,1.0409,0,0,0-.1073-.5476.42.42,0,0,0-.3777-.1619,1.1237,1.1237,0,0,0-.5036.1366,2.0641,2.0641,0,0,0-.485.34V136.93h-1.268v-6q0-.3647-.023-.6944a2.6128,2.6128,0,0,0-.07-.4913l1.2776-.3243a3.5852,3.5852,0,0,1,.0649.5523q.019.34.0186.7146V131.72c0,.0812-.0031.1655-.0091.2534s-.01.1484-.01.1825a1.75,1.75,0,0,1,.6157-.4054,1.939,1.939,0,0,1,.7363-.152,1.5326,1.5326,0,0,1,.7926.1975.962.962,0,0,1,.4478.542c.0245.0744.0451.1437.0606.2079a1.9264,1.9264,0,0,1,.0372.2027c.01.0708.0154.15.0186.2383s.0047.1924.0047.3139V136.93Z" style="fill:#fff"/><path d="M706.4128,137.1932a1.6614,1.6614,0,0,1-.3963-.2636,1.1105,1.1105,0,0,1-.2752-.3647c-.05.0539-.0978.1046-.1445.1521a.96.96,0,0,1-.1445.1215,1.52,1.52,0,0,1-.96.2839,1.6524,1.6524,0,0,1-1.2214-.4209,1.6258,1.6258,0,0,1-.42-1.2007,1.5824,1.5824,0,0,1,.5736-1.3532,2.8485,2.8485,0,0,1,1.72-.4308h.14a1.048,1.048,0,0,1,.14.01v-.213a1.2018,1.2018,0,0,0-.1069-.6029.5033.5033,0,0,0-.4525-.1675,1.605,1.605,0,0,0-.6433.152,4.0963,4.0963,0,0,0-.7364.4359l-.5317-.9727a3.6529,3.6529,0,0,1,.3543-.2233q.1682-.0909.42-.2027a3.4557,3.4557,0,0,1,.6667-.2328,2.86,2.86,0,0,1,.6386-.0712,1.9554,1.9554,0,0,1,1.0024.2331,1.1654,1.1654,0,0,1,.536.6691,1.0706,1.0706,0,0,1,.042.1572c.01.0507.0186.11.0281.1773a1.7807,1.7807,0,0,1,.0139.2431v.3548l-.0278,1.7431c0,.1421.0028.2653.0091.37a1.0449,1.0449,0,0,0,.0563.2886.9016.9016,0,0,0,.135.2482,1.559,1.559,0,0,0,.247.2486ZM705.35,134.66a1.8235,1.8235,0,0,0-.909.1619.6882.6882,0,0,0-.2566.6287.7494.7494,0,0,0,.154.4913.4889.4889,0,0,0,.3963.1877.7129.7129,0,0,0,.3449-.0915,1.0294,1.0294,0,0,0,.3076-.2633l.0186-1.1148Z" style="fill:#fff"/><path d="M710.4779,130.5853a1.9071,1.9071,0,0,0-.3029-.1422.7071.7071,0,0,0-.21-.03.4945.4945,0,0,0-.3825.152.6228.6228,0,0,0-.14.4359v.74h1.2122l-.3171.9323h-.8856V136.93h-1.2218v-4.2568h-.4287v-.9323h.4568q-.0189-.1621-.0324-.35t-.0143-.36a1.6576,1.6576,0,0,1,.4011-1.1908,1.4971,1.4971,0,0,1,1.1374-.4205,2.0777,2.0777,0,0,1,.5737.0761,2.3657,2.3657,0,0,1,.5546.2482Z" style="fill:#fff"/><path d="M713.7789,136.8183a2.4884,2.4884,0,0,1-1.0163.2328,1.59,1.59,0,0,1-.8255-.2075.9925.9925,0,0,1-.4616-.5526q-.0279-.0808-.0463-.1521a.72.72,0,0,1-.0233-.152c-.0032-.0538-.0064-.1195-.01-.1975s-.0047-.1774-.0047-.2989v-2.8177h-.4755v-.9323h.4755q0-.3847.0047-.6588a5.2413,5.2413,0,0,1,.042-.5677l1.2681-.3444q-.0375.355-.0558.7652t-.0186.8057h1.1188l-.3172.9323h-.8016v2.6047a1.3724,1.3724,0,0,0,.1072.6639.4787.4787,0,0,0,.4336.1675.7436.7436,0,0,0,.1817-.0254q.0979-.0255.2656-.076Z" style="fill:#fff"/><path d="M716.7624,134.7406v-1.1758H719v1.1758Z" style="fill:#fff"/><path d="M572.1168,148.2808l-1.9674-3.6791v3.6791H568.816v-7.0439h1.3334V144.45l1.8461-3.2128h1.6038l-2.07,3.2634,2.3032,3.78Z" style="fill:#fff"/><path d="M578.3826,145.6659a3.9919,3.9919,0,0,1-.1442,1.1453,2.5574,2.5574,0,0,1-.4529.8615,1.9917,1.9917,0,0,1-.6429.5269,2.0222,2.0222,0,0,1-.9327.1928,1.9922,1.9922,0,0,1-.8813-.1928,1.9476,1.9476,0,0,1-.6756-.542,2.5436,2.5436,0,0,1-.4337-.8464,3.72,3.72,0,0,1-.1538-1.1045,3.7717,3.7717,0,0,1,.1538-1.11,2.66,2.66,0,0,1,.4337-.8614,1.9054,1.9054,0,0,1,.6756-.5527,1.992,1.992,0,0,1,.8813-.1924,1.949,1.949,0,0,1,1.6224.78,2.3578,2.3578,0,0,1,.42.8108A3.9,3.9,0,0,1,578.3826,145.6659Zm-1.3611-.01a2.6175,2.6175,0,0,0-.2518-1.3884.6293.6293,0,0,0-.5408-.274.6074.6074,0,0,0-.3967.1421.7818.7818,0,0,0-.2471.3852,2.5349,2.5349,0,0,0-.0974.4862,5.8592,5.8592,0,0,0-.0332.6691,3.877,3.877,0,0,0,.1591,1.3072.6156.6156,0,0,0,.2653.32.722.722,0,0,0,.3682.1065.613.613,0,0,0,.5922-.4157A3.5857,3.5857,0,0,0,577.0215,145.656Z" style="fill:#fff"/><path d="M584.518,148.2808v-3.4257q0-.2328-.0138-.3749a.6276.6276,0,0,0-.0563-.2229.2264.2264,0,0,0-.1211-.1117.5664.5664,0,0,0-.2-.03.8872.8872,0,0,0-.4011.1164,1.7833,1.7833,0,0,0-.4287.3191v3.73h-1.1842v-3.375a1.5951,1.5951,0,0,0-.0839-.6434.3548.3548,0,0,0-.3452-.1572,1,1,0,0,0-.3963.0962,1.4323,1.4323,0,0,0-.424.2989v3.78h-1.222v-3.6181a7.1078,7.1078,0,0,0-.0372-.8512,1.4036,1.4036,0,0,0-.14-.4767l1.1285-.3341a1.0593,1.0593,0,0,1,.0978.2177,2.9709,2.9709,0,0,1,.07.3092,1.5676,1.5676,0,0,1,1.1656-.5269,1.2458,1.2458,0,0,1,.9695.4256,1.6524,1.6524,0,0,1,.1865.2533,2.2135,2.2135,0,0,1,.6433-.5221,1.5766,1.5766,0,0,1,.7087-.1568,1.6329,1.6329,0,0,1,.5317.0859,1.0947,1.0947,0,0,1,.41.2383.84.84,0,0,1,.1679.2027,1.1424,1.1424,0,0,1,.1073.2585,1.9586,1.9586,0,0,1,.06.3445q.0184.1977.0187.4612v3.689Z" style="fill:#fff"/><path d="M592.1921,148.2808v-3.4257q0-.2328-.0138-.3749a.6278.6278,0,0,0-.0562-.2229.2266.2266,0,0,0-.1212-.1117.5657.5657,0,0,0-.2-.03.8872.8872,0,0,0-.4011.1164,1.7853,1.7853,0,0,0-.4287.3191v3.73h-1.1842v-3.375a1.5951,1.5951,0,0,0-.0839-.6434.3548.3548,0,0,0-.3452-.1572,1,1,0,0,0-.3963.0962,1.4323,1.4323,0,0,0-.424.2989v3.78h-1.2218v-3.6181a7.0865,7.0865,0,0,0-.0372-.8512,1.4013,1.4013,0,0,0-.14-.4767l1.1283-.3341a1.0593,1.0593,0,0,1,.0978.2177,2.9709,2.9709,0,0,1,.07.3092,1.5676,1.5676,0,0,1,1.1656-.5269,1.2458,1.2458,0,0,1,.97.4256,1.6524,1.6524,0,0,1,.1865.2533,2.2135,2.2135,0,0,1,.6433-.5221,1.5769,1.5769,0,0,1,.7087-.1568,1.6324,1.6324,0,0,1,.5317.0859,1.0939,1.0939,0,0,1,.41.2383.8373.8373,0,0,1,.1679.2027,1.1378,1.1378,0,0,1,.1073.2585,1.9673,1.9673,0,0,1,.0606.3445q.0183.1977.0186.4612v3.689Z" style="fill:#fff"/><path d="M598.0851,148.4225a1.1314,1.1314,0,0,1-.3729-.5067,1.538,1.538,0,0,1-.5551.37,1.904,1.904,0,0,1-.7039.1267,1.7186,1.7186,0,0,1-.8951-.2332,1.0947,1.0947,0,0,1-.5127-.6081,1.9438,1.9438,0,0,1-.0792-.4054q-.0237-.2328-.0234-.6283v-3.3243l1.2309-.2534v3.3347a4.0769,4.0769,0,0,0,.0277.5471,1.29,1.29,0,0,0,.0748.3041.354.354,0,0,0,.1722.1773.5653.5653,0,0,0,.2661.0657.848.848,0,0,0,.466-.152.75.75,0,0,0,.3076-.3444v-3.6486l1.1936-.2736v3.9626a1.7807,1.7807,0,0,0,.0744.5119,1.3328,1.3328,0,0,0,.2146.4307Z" style="fill:#fff"/><path d="M602.71,148.2808v-3.375a1.3807,1.3807,0,0,0-.0887-.603.3471.3471,0,0,0-.331-.1572.8971.8971,0,0,0-.42.1267,1.9915,1.9915,0,0,0-.4478.34v3.6688h-1.2494v-3.76a4.7628,4.7628,0,0,0-.042-.6437,3.3427,3.3427,0,0,0-.1259-.5725l1.11-.3448a1.3855,1.3855,0,0,1,.1774.6489q.14-.1116.2656-.2027a3.13,3.13,0,0,1,.2843-.1825,1.4873,1.4873,0,0,1,.4149-.1675,1.8858,1.8858,0,0,1,.443-.0554,1.2827,1.2827,0,0,1,.7178.2074,1.03,1.03,0,0,1,.4291.5424,2.366,2.366,0,0,1,.0931.74v3.79Z" style="fill:#fff"/><path d="M608.6679,148.5445a1.6608,1.6608,0,0,1-.3963-.2637,1.1089,1.1089,0,0,1-.2752-.365c-.05.0542-.0977.1049-.1445.152a.9639.9639,0,0,1-.1445.1219,1.5189,1.5189,0,0,1-.96.2835,1.6522,1.6522,0,0,1-1.2214-.42,1.626,1.626,0,0,1-.42-1.2008,1.5825,1.5825,0,0,1,.5736-1.3532,2.8492,2.8492,0,0,1,1.72-.4307h.14a1.0315,1.0315,0,0,1,.14.01v-.213a1.2025,1.2025,0,0,0-.1069-.603.5036.5036,0,0,0-.4525-.1675,1.6036,1.6036,0,0,0-.6433.1521,4.088,4.088,0,0,0-.7364.4359l-.5317-.9728a3.6416,3.6416,0,0,1,.3544-.2233q.168-.0907.42-.2027a3.4664,3.4664,0,0,1,.6667-.2327,2.8543,2.8543,0,0,1,.6386-.0713,1.9544,1.9544,0,0,1,1.0024.2332,1.1656,1.1656,0,0,1,.5361.6691,1.0654,1.0654,0,0,1,.0419.1571c.01.0507.0186.11.0281.1774a1.7787,1.7787,0,0,1,.0139.2431v.3547l-.0277,1.7431c0,.1422.0027.2653.0091.37a1.0412,1.0412,0,0,0,.0562.2886.9028.9028,0,0,0,.135.2482,1.5421,1.5421,0,0,0,.247.2483Zm-1.063-2.5338a1.8238,1.8238,0,0,0-.909.1619.6882.6882,0,0,0-.2565.6287.7488.7488,0,0,0,.154.4913.4888.4888,0,0,0,.3963.1877.7122.7122,0,0,0,.3448-.0915,1.0276,1.0276,0,0,0,.3076-.2632l.0186-1.1149Z" style="fill:#fff"/><path d="M612.3787,148.2606a1.898,1.898,0,0,1-.7459.1417,1.2625,1.2625,0,0,1-.7-.1924.9818.9818,0,0,1-.41-.517,1.273,1.273,0,0,1-.0558-.1924c-.0127-.061-.0234-.1319-.0329-.213s-.0154-.1821-.0186-.3041-.0048-.2735-.0048-.456v-3.8715q0-.5168-.0138-.8615t-.0511-.6992l1.2772-.3143a4.1443,4.1443,0,0,1,.0515.5067q.0136.294.0138.8413v4.0437q0,.335.0048.5373c.0031.1354.0059.2434.0091.3242a.7773.7773,0,0,0,.0233.1825.5983.5983,0,0,0,.0467.1117.261.261,0,0,0,.2518.1417h.0654a.2013.2013,0,0,0,.0744-.02Z" style="fill:#fff"/><path d="M613.0315,146.0919V144.916h2.2376v1.1759Z" style="fill:#fff"/><path d="M621.9543,148.4225a1.1314,1.1314,0,0,1-.3729-.5067,1.538,1.538,0,0,1-.5551.37,1.904,1.904,0,0,1-.7039.1267,1.7186,1.7186,0,0,1-.8951-.2332,1.0947,1.0947,0,0,1-.5127-.6081,1.9438,1.9438,0,0,1-.0792-.4054q-.0237-.2328-.0234-.6283v-3.3243l1.2309-.2534v3.3347a4.0769,4.0769,0,0,0,.0277.5471,1.285,1.285,0,0,0,.0748.3041.354.354,0,0,0,.1722.1773.5653.5653,0,0,0,.2661.0657.848.848,0,0,0,.466-.152.75.75,0,0,0,.3076-.3444v-3.6486l1.1936-.2736v3.9626a1.7807,1.7807,0,0,0,.0744.5119,1.3328,1.3328,0,0,0,.2146.4307Z" style="fill:#fff"/><path d="M626.5792,148.2808v-3.375a1.3807,1.3807,0,0,0-.0887-.603.3471.3471,0,0,0-.331-.1572.8971.8971,0,0,0-.42.1267,1.9915,1.9915,0,0,0-.4478.34v3.6688h-1.2494v-3.76a4.7628,4.7628,0,0,0-.042-.6437,3.3427,3.3427,0,0,0-.1259-.5725l1.11-.3448a1.3855,1.3855,0,0,1,.1774.6489q.14-.1116.2656-.2027a3.1164,3.1164,0,0,1,.2843-.1825,1.4873,1.4873,0,0,1,.4149-.1675,1.8858,1.8858,0,0,1,.443-.0554,1.2827,1.2827,0,0,1,.7178.2074,1.03,1.03,0,0,1,.4291.5424,2.3664,2.3664,0,0,1,.093.74v3.79Z" style="fill:#fff"/><path d="M632.2667,148.2808a1.14,1.14,0,0,1-.0744-.3041,1.5369,1.5369,0,0,1-1.1.4359,1.7632,1.7632,0,0,1-.8207-.1876,1.8066,1.8066,0,0,1-.62-.527,2.5012,2.5012,0,0,1-.3963-.8258,3.9666,3.9666,0,0,1-.14-1.0947,3.8718,3.8718,0,0,1,.1493-1.11,2.7543,2.7543,0,0,1,.42-.8666,1.91,1.91,0,0,1,.6434-.5626,1.7415,1.7415,0,0,1,.83-.1975,1.2428,1.2428,0,0,1,.8484.2937,1.9856,1.9856,0,0,1-.0281-.3088c-.0064-.152-.0091-.3056-.0091-.4612v-1.7839l1.24.213v5.3917q0,.4762.0139.8057t.042.5471a2.93,2.93,0,0,0,.0609.3448,1.6954,1.6954,0,0,0,.0606.1976Zm-.2795-3.8208a1.0242,1.0242,0,0,0-.6806-.3346.6372.6372,0,0,0-.6108.3955,3.0936,3.0936,0,0,0-.1913,1.2669,4.8741,4.8741,0,0,0,.042.6992,1.2529,1.2529,0,0,0,.1445.4561.602.602,0,0,0,.27.2482.9913.9913,0,0,0,.41.076.6573.6573,0,0,0,.35-.1065.976.976,0,0,0,.2657-.228Z" style="fill:#fff"/><path d="M640.1459,148.2808c-.0626-.1148-.1168-.2162-.1635-.3041s-.0931-.1738-.14-.2585-.093-.1738-.14-.2684-.1014-.2027-.1631-.3242q-.243-.4764-.4058-.7907t-.2843-.5067a2.1075,2.1075,0,0,0-.21-.289.574.574,0,0,0-.3777-.1976v2.9392h-1.2776v-7.0439H639.4a1.9946,1.9946,0,0,1,.7787.1469,1.7054,1.7054,0,0,1,.6014.4209,1.881,1.881,0,0,1,.3868.6536,2.5086,2.5086,0,0,1,.1354.8464,2.4237,2.4237,0,0,1-.112.7447,2.0805,2.0805,0,0,1-.3076.6133,1.561,1.561,0,0,1-.4617.42,1.1688,1.1688,0,0,1-.5641.1675,1.0966,1.0966,0,0,1,.154.1417q.051.0612.1164.152.0843.1118.2146.3294t.2842.4866q.1544.2683.3171.5574t.3076.5574q.1449.2685.2613.4815t.1726.3242Zm-.2146-4.946a.8165.8165,0,0,0-.4664-.8615,1.1179,1.1179,0,0,0-.3028-.076,3.38,3.38,0,0,0-.4335-.0253h-.4664v1.9055h.4383a2.9475,2.9475,0,0,0,.6342-.0507.698.698,0,0,0,.3448-.1825A.9622.9622,0,0,0,639.9313,143.3348Z" style="fill:#fff"/><path d="M643.6888,146.1121v.04a1.4572,1.4572,0,0,0,.2609.9324.9019.9019,0,0,0,.7459.3246,1.8029,1.8029,0,0,0,1.2122-.517l.485.8108a2.6484,2.6484,0,0,1-1.8.7193,2.2113,2.2113,0,0,1-.9323-.1924,2.0215,2.0215,0,0,1-.7134-.5424,2.4631,2.4631,0,0,1-.4521-.846,3.6164,3.6164,0,0,1-.1584-1.1046,4.3566,4.3566,0,0,1,.14-1.1861,2.4048,2.4048,0,0,1,.4569-.8714,1.9738,1.9738,0,0,1,.662-.5269,1.94,1.94,0,0,1,.8393-.1726,2.1338,2.1338,0,0,1,.7831.1421,1.5164,1.5164,0,0,1,.597.4054,2.2653,2.2653,0,0,1,.48.907,5.092,5.092,0,0,1,.1536,1.3631v.3144Zm1.464-1.0543a2.6251,2.6251,0,0,0-.0328-.466.97.97,0,0,0-.1164-.3143.6063.6063,0,0,0-.55-.3041.6258.6258,0,0,0-.55.289,1.486,1.486,0,0,0-.196.8362v.02h1.4454Z" style="fill:#fff"/><path d="M652.3416,143.66a1.4157,1.4157,0,0,1-.41.2937,1.1343,1.1343,0,0,1-.4663.0911,1.6109,1.6109,0,0,1-.1818-.01c-.059-.0068-.1073-.0135-.1445-.02a1.3578,1.3578,0,0,1,.21.3848,1.4269,1.4269,0,0,1,.07.4664,1.4617,1.4617,0,0,1-.1306.6184,1.4008,1.4008,0,0,1-.3682.4861,1.7923,1.7923,0,0,1-.56.32,2.0533,2.0533,0,0,1-.7039.1164h-.0839a.9138.9138,0,0,1-.1026-.01,2.3865,2.3865,0,0,0-.3682.2178.2671.2671,0,0,0-.1259.2078q0,.1218.2051.1216l.6715.01a3.2317,3.2317,0,0,1,.867.1113,1.3865,1.3865,0,0,1,.578.3547,1.5037,1.5037,0,0,1,.4105,1.1046,1.5955,1.5955,0,0,1-.3824,1.0745,1.72,1.72,0,0,1-.82.517,3.6605,3.6605,0,0,1-1.063.152,4.257,4.257,0,0,1-.9977-.1168,1.6794,1.6794,0,0,1-.8112-.4406,1.27,1.27,0,0,1-.3919-.9225,1.1284,1.1284,0,0,1,.0376-.3293,1.7056,1.7056,0,0,1,.0744-.1976h1.1561a.6533.6533,0,0,0-.0464.1572,1.3023,1.3023,0,0,0-.01.1773.5471.5471,0,0,0,.2285.4763,1.1467,1.1467,0,0,0,.6667.1619,2.4957,2.4957,0,0,0,.4382-.0352.8861.8861,0,0,0,.3449-.137.7166.7166,0,0,0,.224-.228.561.561,0,0,0,.084-.2989.4876.4876,0,0,0-.2518-.4814,1.4792,1.4792,0,0,0-.6248-.137l-.5316-.01a3.0986,3.0986,0,0,1-1.147-.1623.5476.5476,0,0,1-.2656-.2431.8728.8728,0,0,1-.0978-.4359,1.0611,1.0611,0,0,1,.0281-.2431.5858.5858,0,0,1,.1164-.2332.9348.9348,0,0,1,.2609-.213,1.9737,1.9737,0,0,1,.4711-.1821,1.3312,1.3312,0,0,1-1.0258-1.4395,1.7437,1.7437,0,0,1,.1445-.7193,1.5723,1.5723,0,0,1,.4058-.5523,1.8556,1.8556,0,0,1,.6339-.3547,2.5593,2.5593,0,0,1,.83-.1267,2.6213,2.6213,0,0,1,.401.03,4.4131,4.4131,0,0,1,.4569.1013c.1306.0341.2407.061.331.0812a1.1766,1.1766,0,0,0,.2565.03,1.243,1.243,0,0,0,.5175-.1164,1.6155,1.6155,0,0,0,.4707-.3294Zm-2.21,1.1045a.7726.7726,0,0,0-.2-.5677.7458.7458,0,0,0-.5546-.2027.73.73,0,0,0-.55.2027.7834.7834,0,0,0-.1956.5677.7022.7022,0,0,0,.2051.5677.7975.7975,0,0,0,.5313.1723A.6652.6652,0,0,0,650.1317,144.764Z" style="fill:#fff"/><path d="M654.4486,141.6625a.8506.8506,0,0,1-.2237.5982.7191.7191,0,0,1-.55.2431.7088.7088,0,0,1-.5408-.2431.8519.8519,0,0,1-.2237-.5982.84.84,0,0,1,.2284-.5978.7324.7324,0,0,1,.5547-.2431.6942.6942,0,0,1,.5364.2431A.8628.8628,0,0,1,654.4486,141.6625Zm-1.3988,6.6183v-5.098l1.25-.2126v5.3106Z" style="fill:#fff"/><path d="M659.8755,145.6659a3.9806,3.9806,0,0,1-.1445,1.1453,2.5565,2.5565,0,0,1-.4525.8615,1.9974,1.9974,0,0,1-.6433.5269,2.0206,2.0206,0,0,1-.9324.1928,1.9909,1.9909,0,0,1-.8812-.1928,1.9455,1.9455,0,0,1-.6758-.542,2.54,2.54,0,0,1-.4335-.8464,3.72,3.72,0,0,1-.154-1.1045,3.7715,3.7715,0,0,1,.154-1.11,2.6554,2.6554,0,0,1,.4335-.8614,1.9034,1.9034,0,0,1,.6758-.5527,1.9907,1.9907,0,0,1,.8812-.1924,1.95,1.95,0,0,1,1.6224.78,2.3649,2.3649,0,0,1,.42.8108A3.9,3.9,0,0,1,659.8755,145.6659Zm-1.3615-.01a2.6177,2.6177,0,0,0-.2517-1.3884.6288.6288,0,0,0-.5408-.274.6064.6064,0,0,0-.3963.1421.7791.7791,0,0,0-.2471.3852,2.5636,2.5636,0,0,0-.0978.4862,5.9616,5.9616,0,0,0-.0328.6691,3.89,3.89,0,0,0,.1587,1.3072.6176.6176,0,0,0,.2657.32.7217.7217,0,0,0,.3682.1065.6133.6133,0,0,0,.5922-.4157A3.5878,3.5878,0,0,0,658.514,145.656Z" style="fill:#fff"/><path d="M663.6706,148.2808v-3.375a1.3826,1.3826,0,0,0-.0886-.603.3472.3472,0,0,0-.331-.1572.8974.8974,0,0,0-.42.1267,1.9911,1.9911,0,0,0-.4477.34v3.6688h-1.25v-3.76a4.7465,4.7465,0,0,0-.042-.6437,3.3333,3.3333,0,0,0-.1259-.5725l1.11-.3448a1.3865,1.3865,0,0,1,.1773.6489q.14-.1116.2657-.2027a3.1141,3.1141,0,0,1,.2842-.1825,1.4873,1.4873,0,0,1,.4149-.1675,1.8858,1.8858,0,0,1,.443-.0554,1.2823,1.2823,0,0,1,.7178.2074,1.03,1.03,0,0,1,.4292.5424,2.3694,2.3694,0,0,1,.093.74v3.79Z" style="fill:#fff"/><path d="M669.6285,148.5445a1.6628,1.6628,0,0,1-.3963-.2637,1.1072,1.1072,0,0,1-.2751-.365c-.05.0542-.0978.1049-.1445.152a.9639.9639,0,0,1-.1445.1219,1.5194,1.5194,0,0,1-.9605.2835,1.6521,1.6521,0,0,1-1.2213-.42,1.6261,1.6261,0,0,1-.42-1.2008,1.5823,1.5823,0,0,1,.5737-1.3532,2.849,2.849,0,0,1,1.72-.4307h.14a1.0318,1.0318,0,0,1,.14.01v-.213a1.2036,1.2036,0,0,0-.1069-.603.5037.5037,0,0,0-.4525-.1675,1.6037,1.6037,0,0,0-.6434.1521,4.0874,4.0874,0,0,0-.7363.4359l-.5317-.9728a3.6408,3.6408,0,0,1,.3543-.2233q.168-.0907.42-.2027a3.4664,3.4664,0,0,1,.6667-.2327,2.8556,2.8556,0,0,1,.6386-.0713,1.9542,1.9542,0,0,1,1.0024.2332,1.1652,1.1652,0,0,1,.5361.6691,1.0662,1.0662,0,0,1,.042.1571c.01.0507.0186.11.0281.1774a1.78,1.78,0,0,1,.0138.2431v.3547l-.0277,1.7431c0,.1422.0028.2653.0091.37a1.0486,1.0486,0,0,0,.0562.2886.9028.9028,0,0,0,.135.2482,1.5432,1.5432,0,0,0,.2471.2483Zm-1.063-2.5338a1.8231,1.8231,0,0,0-.9089.1619.688.688,0,0,0-.2566.6287.7494.7494,0,0,0,.154.4913.4889.4889,0,0,0,.3963.1877.7122.7122,0,0,0,.3448-.0915,1.0279,1.0279,0,0,0,.3077-.2632l.0186-1.1149Z" style="fill:#fff"/><path d="M673.34,148.2606a1.898,1.898,0,0,1-.7459.1417,1.2619,1.2619,0,0,1-.6995-.1924.9815.9815,0,0,1-.41-.517,1.2966,1.2966,0,0,1-.0558-.1924c-.0127-.061-.0234-.1319-.0329-.213s-.0154-.1821-.0186-.3041-.0047-.2735-.0047-.456v-3.8715q0-.5168-.0139-.8615t-.0511-.6992l1.2772-.3143a4.1246,4.1246,0,0,1,.0515.5067q.0136.294.0138.8413v4.0437q0,.335.0048.5373c.0032.1354.0059.2434.0091.3242a.7763.7763,0,0,0,.0234.1825.5916.5916,0,0,0,.0467.1117.261.261,0,0,0,.2518.1417h.0653a.2013.2013,0,0,0,.0744-.02Z" style="fill:#fff"/><path d="M678.393,145.5443q0,.4158-.0325.74a3.2343,3.2343,0,0,1-.112.593,2.3346,2.3346,0,0,1-.2051.4913,2.61,2.61,0,0,1-.3124.4359,1.6791,1.6791,0,0,1-.5641.4359,1.6465,1.6465,0,0,1-.7131.152,1.9961,1.9961,0,0,1-.5364-.0712,1.6613,1.6613,0,0,1-.4612-.2027,1.027,1.027,0,0,1,.0186.2027v1.8449l-1.2032.3444v-6q0-.2529-.0043-.4307t-.01-.3143c-.0032-.0911-.0091-.1806-.0186-.2685s-.0234-.1856-.042-.2937l1.11-.213q.0369.1419.0558.2534t.0282.2331a1.1259,1.1259,0,0,1,.4845-.35,1.7633,1.7633,0,0,1,.69-.137,1.5063,1.5063,0,0,1,.4988.0863,1.7082,1.7082,0,0,1,.443.228,1.8281,1.8281,0,0,1,.3544.3393,2.1258,2.1258,0,0,1,.2795.4715,2.8269,2.8269,0,0,1,.1868.6283A4.4768,4.4768,0,0,1,678.393,145.5443Zm-1.3611.1319q0-.3747-.0282-.664a2.201,2.201,0,0,0-.093-.4814.5749.5749,0,0,0-.597-.4359,1.0645,1.0645,0,0,0-.83.3956v2.5234a1.658,1.658,0,0,0,.3171.2079.8074.8074,0,0,0,.3729.0962.6864.6864,0,0,0,.662-.3749A2.9443,2.9443,0,0,0,677.0319,145.6762Z" style="fill:#fff"/><path d="M683.6893,145.6659a3.9806,3.9806,0,0,1-.1445,1.1453,2.5565,2.5565,0,0,1-.4525.8615,1.9974,1.9974,0,0,1-.6433.5269,2.0212,2.0212,0,0,1-.9324.1928,1.9916,1.9916,0,0,1-.8813-.1928,1.9474,1.9474,0,0,1-.6758-.542,2.5433,2.5433,0,0,1-.4335-.8464,3.7233,3.7233,0,0,1-.154-1.1045,3.7748,3.7748,0,0,1,.154-1.11,2.6593,2.6593,0,0,1,.4335-.8614,1.9051,1.9051,0,0,1,.6758-.5527,1.9914,1.9914,0,0,1,.8813-.1924,1.95,1.95,0,0,1,1.6224.78,2.3649,2.3649,0,0,1,.42.8108A3.9,3.9,0,0,1,683.6893,145.6659Zm-1.3615-.01a2.6165,2.6165,0,0,0-.2518-1.3884.6287.6287,0,0,0-.5408-.274.6066.6066,0,0,0-.3963.1421.7789.7789,0,0,0-.247.3852,2.5558,2.5558,0,0,0-.0978.4862,5.9357,5.9357,0,0,0-.0329.6691,3.8891,3.8891,0,0,0,.1588,1.3072.6179.6179,0,0,0,.2656.32.7222.7222,0,0,0,.3682.1065.6135.6135,0,0,0,.5923-.4157A3.59,3.59,0,0,0,682.3278,145.656Z" style="fill:#fff"/><path d="M686.8688,148.2606a1.898,1.898,0,0,1-.7459.1417,1.2625,1.2625,0,0,1-.7-.1924.9818.9818,0,0,1-.41-.517,1.2847,1.2847,0,0,1-.0558-.1924c-.0127-.061-.0234-.1319-.0329-.213s-.0154-.1821-.0186-.3041-.0047-.2735-.0047-.456v-3.8715q0-.5168-.0139-.8615t-.0511-.6992l1.2772-.3143a4.1443,4.1443,0,0,1,.0515.5067q.0136.294.0138.8413v4.0437q0,.335.0048.5373c.0031.1354.0059.2434.0091.3242a.7773.7773,0,0,0,.0233.1825.5918.5918,0,0,0,.0468.1117.2608.2608,0,0,0,.2517.1417h.0654a.2013.2013,0,0,0,.0744-.02Z" style="fill:#fff"/><path d="M689.2,141.6625a.8505.8505,0,0,1-.2236.5982.7191.7191,0,0,1-.55.2431.7086.7086,0,0,1-.5408-.2431.8519.8519,0,0,1-.2237-.5982.84.84,0,0,1,.2284-.5978.7324.7324,0,0,1,.5547-.2431.6942.6942,0,0,1,.5364.2431A.8628.8628,0,0,1,689.2,141.6625Zm-1.3987,6.6183v-5.098l1.25-.2126v5.3106Z" style="fill:#fff"/><path d="M693.0226,148.1692a2.4833,2.4833,0,0,1-1.0162.2331,1.5859,1.5859,0,0,1-.8255-.2078.99.99,0,0,1-.4616-.5523q-.0279-.0807-.0463-.152a.7271.7271,0,0,1-.0234-.152c-.0031-.0539-.0063-.12-.01-.1976s-.0047-.1774-.0047-.2989v-2.8176H690.16v-.9324h.4755q0-.3848.0047-.6587a5.2179,5.2179,0,0,1,.042-.5678l1.2681-.3444q-.0375.3552-.0559.7653t-.0186.8056h1.1188l-.3171.9324h-.8017v2.6046a1.3716,1.3716,0,0,0,.1073.6639.4784.4784,0,0,0,.4335.1675.7426.7426,0,0,0,.1817-.0253q.0981-.0256.2657-.0761Z" style="fill:#fff"/><path d="M695.4935,141.6625a.8506.8506,0,0,1-.2237.5982.7191.7191,0,0,1-.55.2431.7088.7088,0,0,1-.5408-.2431.8519.8519,0,0,1-.2237-.5982.84.84,0,0,1,.2284-.5978.7324.7324,0,0,1,.5547-.2431.6942.6942,0,0,1,.5364.2431A.8628.8628,0,0,1,695.4935,141.6625Zm-1.3988,6.6183v-5.098l1.25-.2126v5.3106Z" style="fill:#fff"/><path d="M696.8827,148.2808V142.433q0-.3445-.0139-.6438t-.07-.7043l1.259-.3345a6.0931,6.0931,0,0,1,.0606.73q.0143.4359.0138.9526v5.8478Zm2.8813,0-1.6038-2.9392,1.2214-2.25h1.5012l-1.52,2.1688,1.8742,3.02Z" style="fill:#fff"/><path d="M512.6514,66.3672h-4.17l-.9365,2.6045h-1.3535l3.8008-9.9531h1.1484l3.8076,9.9531h-1.3466Zm-3.7735-1.0733h3.3838l-1.6953-4.6552Z" style="fill:#fff"/><path d="M525.8037,65.3555a4.4313,4.4313,0,0,1-.7724,2.7207,2.4755,2.4755,0,0,1-2.0918,1.0322,2.7122,2.7122,0,0,1-2.1192-.8545v3.5615h-1.2646v-10.24h1.1552l.0616.82a2.604,2.604,0,0,1,2.1464-.957,2.5233,2.5233,0,0,1,2.1094,1.0049,4.4815,4.4815,0,0,1,.7754,2.7959Zm-1.2646-.1436a3.2682,3.2682,0,0,0-.5332-1.9756,1.7177,1.7177,0,0,0-1.4629-.7246A1.8588,1.8588,0,0,0,520.82,63.53v3.5342a1.8625,1.8625,0,0,0,1.7363,1.0117,1.7105,1.7105,0,0,0,1.4463-.7212A3.57,3.57,0,0,0,524.5391,65.2119Z" style="fill:#fff"/><path d="M530.9854,62.71a3.7993,3.7993,0,0,0-.6221-.0479,1.6663,1.6663,0,0,0-1.6885,1.06v5.25H527.41V61.5752h1.23l.0205.8545a1.97,1.97,0,0,1,1.7637-.9912,1.29,1.29,0,0,1,.5606.0957Z" style="fill:#fff"/><path d="M531.6758,65.2051a4.378,4.378,0,0,1,.4267-1.9551,3.1926,3.1926,0,0,1,1.19-1.34,3.2416,3.2416,0,0,1,1.74-.4717,3.1172,3.1172,0,0,1,2.4434,1.0459,4.0192,4.0192,0,0,1,.9336,2.7822v.0889a4.3966,4.3966,0,0,1-.4141,1.938,3.1432,3.1432,0,0,1-1.1816,1.3364,3.282,3.282,0,0,1-1.7676.4785,3.1133,3.1133,0,0,1-2.4375-1.0459,4.008,4.008,0,0,1-.9326-2.7686Zm1.2715.15a3.1619,3.1619,0,0,0,.5713,1.9756,1.9337,1.9337,0,0,0,3.0585-.01,3.4619,3.4619,0,0,0,.5674-2.1157,3.161,3.161,0,0,0-.5771-1.9722,1.8391,1.8391,0,0,0-1.5352-.7554,1.8168,1.8168,0,0,0-1.5107.7452A3.4337,3.4337,0,0,0,532.9473,65.3555Z" style="fill:#fff"/><path d="M541.3008,61.5752v8.251q0,2.1327-1.9346,2.1328a2.3709,2.3709,0,0,1-.7724-.1221V70.8311a2.4341,2.4341,0,0,0,.5742.0546.8589.8589,0,0,0,.6455-.229,1.1322,1.1322,0,0,0,.2226-.7973V61.5752Zm-1.3945-1.9619a.7555.7555,0,0,1,.1884-.5161.69.69,0,0,1,.55-.2154.7178.7178,0,0,1,.5606.212.7452.7452,0,0,1,.1914.52.721.721,0,0,1-.1914.5127.7306.7306,0,0,1-.5606.2051.7074.7074,0,0,1-.5537-.2051A.7379.7379,0,0,1,539.9063,59.6133Z" style="fill:#fff"/><path d="M546.4072,69.1084a3.2305,3.2305,0,0,1-2.4472-.9878,3.6664,3.6664,0,0,1-.9434-2.6421v-.2324a4.4255,4.4255,0,0,1,.4209-1.9653,3.2684,3.2684,0,0,1,1.1758-1.3536,2.9548,2.9548,0,0,1,1.6367-.4887,2.77,2.77,0,0,1,2.2422.95,4.114,4.114,0,0,1,.8,2.7207v.5263h-5.0107a2.6335,2.6335,0,0,0,.6386,1.7671,2.011,2.011,0,0,0,1.5557.6734,2.2037,2.2037,0,0,0,1.1348-.2735,2.8527,2.8527,0,0,0,.8134-.7246l.7725.6016A3.1064,3.1064,0,0,1,546.4072,69.1084Zm-.1572-6.6309a1.6865,1.6865,0,0,0-1.2852.5572,2.7066,2.7066,0,0,0-.6425,1.562h3.705V64.501a2.4082,2.4082,0,0,0-.5195-1.4937A1.5888,1.5888,0,0,0,546.25,62.4775Z" style="fill:#fff"/><path d="M553.7217,68.0762a1.8206,1.8206,0,0,0,1.1826-.41,1.4427,1.4427,0,0,0,.56-1.0254h1.1963a2.2923,2.2923,0,0,1-.4375,1.21,2.8834,2.8834,0,0,1-1.0761.916,3.1091,3.1091,0,0,1-1.4258.3418A3.0445,3.0445,0,0,1,551.3193,68.1a4.012,4.012,0,0,1-.8925-2.7583V65.13a4.4483,4.4483,0,0,1,.3964-1.9209,3.02,3.02,0,0,1,1.1387-1.3057,3.2291,3.2291,0,0,1,1.7529-.4648,2.9658,2.9658,0,0,1,2.0674.7451,2.6594,2.6594,0,0,1,.8789,1.9346h-1.1963a1.74,1.74,0,0,0-.5439-1.1792,1.688,1.688,0,0,0-1.2061-.4615,1.7687,1.7687,0,0,0-1.4931.6939,3.2559,3.2559,0,0,0-.53,2.0063v.2393a3.1962,3.1962,0,0,0,.5264,1.9687A1.778,1.778,0,0,0,553.7217,68.0762Z" style="fill:#fff"/><path d="M559.7988,59.7842v1.791H561.18v.9775h-1.3809v4.5928a1.028,1.028,0,0,0,.1846.6675.7784.7784,0,0,0,.6289.2222,3.0625,3.0625,0,0,0,.6016-.0821v1.02a3.7011,3.7011,0,0,1-.9707.1357,1.5747,1.5747,0,0,1-1.2784-.5127,2.2026,2.2026,0,0,1-.4306-1.4561V62.5527h-1.3467v-.9775h1.3467v-1.791Z" style="fill:#fff"/><path d="M570.6885,68.9717a2.6574,2.6574,0,0,1-.1778-.7793,2.8215,2.8215,0,0,1-2.1054.916A2.6118,2.6118,0,0,1,566.61,68.49a2.0025,2.0025,0,0,1-.7-1.5688,2.0923,2.0923,0,0,1,.8779-1.7944,4.1429,4.1429,0,0,1,2.4717-.6392h1.23v-.581a1.42,1.42,0,0,0-.3964-1.0562,1.594,1.594,0,0,0-1.169-.3931,1.844,1.844,0,0,0-1.1348.3418,1.0066,1.0066,0,0,0-.458.8272h-1.2715a1.7421,1.7421,0,0,1,.3936-1.07,2.6768,2.6768,0,0,1,1.0664-.8169,3.5793,3.5793,0,0,1,1.48-.3008,2.9235,2.9235,0,0,1,2.0029.6391,2.3059,2.3059,0,0,1,.752,1.76v3.4043a4.1681,4.1681,0,0,0,.26,1.62v.1094Zm-2.0987-.9639a2.2227,2.2227,0,0,0,1.128-.3076,1.8589,1.8589,0,0,0,.7724-.8V65.3828h-.9912q-2.3247,0-2.3242,1.36a1.15,1.15,0,0,0,.3965.93A1.5248,1.5248,0,0,0,568.59,68.0078Z" style="fill:#fff"/><path d="M575.4531,59.7842v1.791h1.3809v.9775h-1.3809v4.5928a1.0274,1.0274,0,0,0,.1846.6675.7784.7784,0,0,0,.6289.2222,3.0625,3.0625,0,0,0,.6016-.0821v1.02a3.7011,3.7011,0,0,1-.9707.1357,1.5747,1.5747,0,0,1-1.2784-.5127,2.2026,2.2026,0,0,1-.4306-1.4561V62.5527h-1.3467v-.9775h1.3467v-1.791Z" style="fill:#fff"/><path d="M583.4922,59.7842v1.791h1.3808v.9775h-1.3808v4.5928a1.0274,1.0274,0,0,0,.1846.6675.7784.7784,0,0,0,.6289.2222,3.0617,3.0617,0,0,0,.6015-.0821v1.02a3.7005,3.7005,0,0,1-.9707.1357,1.5745,1.5745,0,0,1-1.2783-.5127,2.2026,2.2026,0,0,1-.4307-1.4561V62.5527h-1.3466v-.9775h1.3466v-1.791Z" style="fill:#fff"/><path d="M587.6143,62.4707a2.69,2.69,0,0,1,2.1875-1.0322q2.3451,0,2.3652,2.6455v4.8877h-1.2647V64.0771a1.7089,1.7089,0,0,0-.3652-1.1826,1.4679,1.4679,0,0,0-1.1182-.3828,1.8246,1.8246,0,0,0-1.08.3281,2.2278,2.2278,0,0,0-.7246.8614v5.27H586.35v-10.5h1.2647Z" style="fill:#fff"/><path d="M597.13,69.1084a3.2307,3.2307,0,0,1-2.4473-.9878,3.6663,3.6663,0,0,1-.9433-2.6421v-.2324a4.4242,4.4242,0,0,1,.4209-1.9653,3.2682,3.2682,0,0,1,1.1757-1.3536,2.9554,2.9554,0,0,1,1.6368-.4887,2.77,2.77,0,0,1,2.2421.95,4.114,4.114,0,0,1,.8,2.7207v.5263h-5.0107a2.6341,2.6341,0,0,0,.6387,1.7671,2.0108,2.0108,0,0,0,1.5556.6734,2.2037,2.2037,0,0,0,1.1348-.2735,2.8517,2.8517,0,0,0,.8135-.7246l.7724.6016A3.1064,3.1064,0,0,1,597.13,69.1084Zm-.1572-6.6309a1.6863,1.6863,0,0,0-1.2852.5572,2.7067,2.7067,0,0,0-.6426,1.562H598.75V64.501a2.4088,2.4088,0,0,0-.5195-1.4937A1.5888,1.5888,0,0,0,596.9727,62.4775Z" style="fill:#fff"/><path d="M612.1484,59.0186v6.7675a3.1779,3.1779,0,0,1-.8847,2.3037,3.5668,3.5668,0,0,1-2.3828,1.0049l-.3487.0137a3.7267,3.7267,0,0,1-2.6045-.8818,3.1517,3.1517,0,0,1-.9843-2.4268V59.0186h1.2988v6.74a2.0759,2.0759,0,0,0,2.29,2.2764,2.3023,2.3023,0,0,0,1.7061-.5948,2.2747,2.2747,0,0,0,.5908-1.6748v-6.747Z" style="fill:#fff"/><path d="M615.2178,61.5752l.041.93a2.696,2.696,0,0,1,2.2148-1.0664q2.3452,0,2.3653,2.6455v4.8877h-1.2647V64.0771a1.7094,1.7094,0,0,0-.3652-1.1826,1.4679,1.4679,0,0,0-1.1182-.3828,1.8251,1.8251,0,0,0-1.08.3281,2.23,2.23,0,0,0-.7246.8614v5.27h-1.2646V61.5752Z" style="fill:#fff"/><path d="M621.7529,59.6133a.7517.7517,0,0,1,.1885-.52.7046.7046,0,0,1,.5566-.212.7176.7176,0,0,1,.5606.212.7452.7452,0,0,1,.1914.52.721.721,0,0,1-.1914.5127.73.73,0,0,1-.5606.2051.717.717,0,0,1-.5566-.2051A.7272.7272,0,0,1,621.7529,59.6133Zm1.3672,9.3584h-1.2646V61.5752H623.12Z" style="fill:#fff"/><path d="M627.584,67.2559l1.832-5.6807h1.292l-2.6523,7.3965h-.9639l-2.68-7.3965h1.292Z" style="fill:#fff"/><path d="M634.9053,69.1084a3.2306,3.2306,0,0,1-2.4473-.9878,3.6664,3.6664,0,0,1-.9434-2.6421v-.2324a4.4255,4.4255,0,0,1,.4209-1.9653,3.2684,3.2684,0,0,1,1.1758-1.3536,2.9553,2.9553,0,0,1,1.6367-.4887,2.77,2.77,0,0,1,2.2422.95,4.114,4.114,0,0,1,.8,2.7207v.5263h-5.0107a2.6336,2.6336,0,0,0,.6387,1.7671,2.0108,2.0108,0,0,0,1.5556.6734,2.2037,2.2037,0,0,0,1.1348-.2735,2.8517,2.8517,0,0,0,.8135-.7246l.7724.6016A3.1064,3.1064,0,0,1,634.9053,69.1084Zm-.1573-6.6309a1.6863,1.6863,0,0,0-1.2851.5572,2.706,2.706,0,0,0-.6426,1.562h3.7051V64.501a2.4088,2.4088,0,0,0-.5195-1.4937A1.5889,1.5889,0,0,0,634.748,62.4775Z" style="fill:#fff"/><path d="M642.8281,62.71a3.7971,3.7971,0,0,0-.622-.0479,1.6663,1.6663,0,0,0-1.6885,1.06v5.25h-1.2647V61.5752h1.2305l.0205.8545a1.97,1.97,0,0,1,1.7637-.9912,1.29,1.29,0,0,1,.56.0957Z" style="fill:#fff"/><path d="M648.2969,67.01a.93.93,0,0,0-.3867-.7964,3.714,3.714,0,0,0-1.3457-.4888,6.384,6.384,0,0,1-1.5254-.4922,2.1817,2.1817,0,0,1-.834-.6836,1.6363,1.6363,0,0,1-.27-.9433,1.9168,1.9168,0,0,1,.77-1.5381,2.9982,2.9982,0,0,1,1.9648-.6289,3.0915,3.0915,0,0,1,2.041.6494,2.0636,2.0636,0,0,1,.7823,1.6611h-1.2715a1.1443,1.1443,0,0,0-.44-.8955,1.6568,1.6568,0,0,0-1.1114-.376,1.7288,1.7288,0,0,0-1.08.3008.947.947,0,0,0-.39.7862.7679.7679,0,0,0,.3623.69,4.4522,4.4522,0,0,0,1.3086.4443,6.8111,6.8111,0,0,1,1.5352.5059,2.23,2.23,0,0,1,.871.7075,1.7374,1.7374,0,0,1,.2842,1.0083,1.8944,1.8944,0,0,1-.7929,1.5894,3.3257,3.3257,0,0,1-2.0577.5981,3.7264,3.7264,0,0,1-1.5722-.3145,2.5563,2.5563,0,0,1-1.07-.8784,2.1208,2.1208,0,0,1-.3858-1.22h1.2647a1.3067,1.3067,0,0,0,.51,1.0083,1.9729,1.9729,0,0,0,1.2539.3726,2.041,2.041,0,0,0,1.1524-.2906A.8929.8929,0,0,0,648.2969,67.01Z" style="fill:#fff"/><path d="M651.2158,59.6133a.7517.7517,0,0,1,.1885-.52.7045.7045,0,0,1,.5566-.212.7176.7176,0,0,1,.5606.212.7452.7452,0,0,1,.1914.52.721.721,0,0,1-.1914.5127.73.73,0,0,1-.5606.2051.7169.7169,0,0,1-.5566-.2051A.7272.7272,0,0,1,651.2158,59.6133Zm1.3672,9.3584h-1.2646V61.5752h1.2646Z" style="fill:#fff"/><path d="M656.3223,59.7842v1.791h1.3808v.9775h-1.3808v4.5928a1.028,1.028,0,0,0,.1845.6675.7785.7785,0,0,0,.6289.2222,3.0615,3.0615,0,0,0,.6016-.0821v1.02a3.7005,3.7005,0,0,1-.9707.1357,1.5745,1.5745,0,0,1-1.2783-.5127,2.2026,2.2026,0,0,1-.4307-1.4561V62.5527h-1.3467v-.9775h1.3467v-1.791Z" style="fill:#fff"/><path d="M661.6,67.1191l1.7227-5.5439h1.3535l-2.9737,8.5381q-.69,1.8458-2.1943,1.8457l-.2392-.02-.4717-.0889V70.8242l.3418.0274a1.6847,1.6847,0,0,0,1.0019-.26,1.8873,1.8873,0,0,0,.5908-.95l.28-.752-2.6387-7.3144h1.3809Z" style="fill:#fff"/><path d="M668.9346,65.2051a4.3766,4.3766,0,0,1,.4267-1.9551,3.1926,3.1926,0,0,1,1.1895-1.34,3.2414,3.2414,0,0,1,1.74-.4717,3.1172,3.1172,0,0,1,2.4434,1.0459,4.0192,4.0192,0,0,1,.9336,2.7822v.0889a4.3966,4.3966,0,0,1-.4141,1.938,3.1432,3.1432,0,0,1-1.1816,1.3364,3.282,3.282,0,0,1-1.7676.4785,3.1133,3.1133,0,0,1-2.4375-1.0459,4.008,4.008,0,0,1-.9326-2.7686Zm1.2715.15a3.1625,3.1625,0,0,0,.5712,1.9756,1.9338,1.9338,0,0,0,3.0586-.01,3.4619,3.4619,0,0,0,.5674-2.1157,3.161,3.161,0,0,0-.5771-1.9722,1.8391,1.8391,0,0,0-1.5352-.7554,1.8168,1.8168,0,0,0-1.5107.7452A3.4337,3.4337,0,0,0,670.2061,65.3555Z" style="fill:#fff"/><path d="M677.876,68.9717v-6.419h-1.169v-.9775h1.169v-.7588a2.519,2.519,0,0,1,.6357-1.8389,2.4015,2.4015,0,0,1,1.7979-.6494,3.3482,3.3482,0,0,1,.8681.1153l-.0683,1.02a3.6339,3.6339,0,0,0-.6836-.0615,1.2353,1.2353,0,0,0-.95.36,1.46,1.46,0,0,0-.335,1.0323v.7817H680.72v.9775h-1.5791v6.419Z" style="fill:#fff"/><path d="M687.4736,59.0186l3.2539,8.121,3.2539-8.121h1.7022v9.9531h-1.3125v-3.876l.123-4.1836-3.2675,8.06h-1.0049l-3.2608-8.0391.13,4.1631v3.876h-1.3125V59.0186Z" style="fill:#fff"/><path d="M702.3691,68.24a2.6871,2.6871,0,0,1-2.167.8682,2.3018,2.3018,0,0,1-1.8017-.687,2.9769,2.9769,0,0,1-.625-2.0337V61.5752H699.04v4.7783q0,1.6816,1.3672,1.6817a1.8936,1.8936,0,0,0,1.9278-1.08v-5.38H703.6v7.3965h-1.2031Zm-3.8486-8.644a.7453.7453,0,0,1,.1885-.5186.7087.7087,0,0,1,.5566-.2094.7221.7221,0,0,1,.5606.2094.7388.7388,0,0,1,.1914.5186.6858.6858,0,0,1-.752.7212.7155.7155,0,0,1-.5566-.2061A.7325.7325,0,0,1,698.5205,59.5962Zm2.94.0137a.7584.7584,0,0,1,.1884-.522.7021.7021,0,0,1,.5567-.2129.7147.7147,0,0,1,.56.2129.7509.7509,0,0,1,.1914.522.6858.6858,0,0,1-.7519.7212.7158.7158,0,0,1-.5567-.2061A.7328.7328,0,0,1,701.46,59.61Z" style="fill:#fff"/><path d="M706.7168,61.5752l.041.93a2.696,2.696,0,0,1,2.2149-1.0664q2.3451,0,2.3652,2.6455v4.8877h-1.2647V64.0771a1.7089,1.7089,0,0,0-.3652-1.1826,1.4679,1.4679,0,0,0-1.1182-.3828,1.8246,1.8246,0,0,0-1.08.3281,2.2278,2.2278,0,0,0-.7246.8614v5.27h-1.2647V61.5752Z" style="fill:#fff"/><path d="M717.5518,67.01a.93.93,0,0,0-.3868-.7964,3.7125,3.7125,0,0,0-1.3457-.4888,6.387,6.387,0,0,1-1.5254-.4922,2.1813,2.1813,0,0,1-.8339-.6836,1.6363,1.6363,0,0,1-.27-.9433,1.9168,1.9168,0,0,1,.77-1.5381,2.9982,2.9982,0,0,1,1.9648-.6289,3.0915,3.0915,0,0,1,2.041.6494,2.0635,2.0635,0,0,1,.7822,1.6611h-1.2714a1.1441,1.1441,0,0,0-.44-.8955,1.6564,1.6564,0,0,0-1.1113-.376,1.7286,1.7286,0,0,0-1.08.3008.947.947,0,0,0-.39.7862.7679.7679,0,0,0,.3623.69,4.4522,4.4522,0,0,0,1.3086.4443,6.8083,6.8083,0,0,1,1.5351.5059,2.2308,2.2308,0,0,1,.8711.7075,1.7374,1.7374,0,0,1,.2842,1.0083,1.8942,1.8942,0,0,1-.793,1.5894,3.3252,3.3252,0,0,1-2.0576.5981,3.7261,3.7261,0,0,1-1.5722-.3145,2.5572,2.5572,0,0,1-1.07-.8784,2.1214,2.1214,0,0,1-.3857-1.22h1.2646a1.3071,1.3071,0,0,0,.51,1.0083,1.9729,1.9729,0,0,0,1.2539.3726,2.0412,2.0412,0,0,0,1.1524-.2906A.8929.8929,0,0,0,717.5518,67.01Z" style="fill:#fff"/><path d="M722.18,59.7842v1.791h1.3808v.9775H722.18v4.5928a1.0274,1.0274,0,0,0,.1846.6675.7784.7784,0,0,0,.6289.2222,3.0617,3.0617,0,0,0,.6015-.0821v1.02a3.7005,3.7005,0,0,1-.9707.1357,1.5745,1.5745,0,0,1-1.2783-.5127,2.2026,2.2026,0,0,1-.4307-1.4561V62.5527h-1.3466v-.9775h1.3466v-1.791Z" style="fill:#fff"/><path d="M728.1064,69.1084a3.2305,3.2305,0,0,1-2.4472-.9878,3.6664,3.6664,0,0,1-.9434-2.6421v-.2324a4.4255,4.4255,0,0,1,.4209-1.9653,3.2684,3.2684,0,0,1,1.1758-1.3536,2.9548,2.9548,0,0,1,1.6367-.4887,2.77,2.77,0,0,1,2.2422.95,4.114,4.114,0,0,1,.8,2.7207v.5263h-5.0107a2.6335,2.6335,0,0,0,.6386,1.7671,2.011,2.011,0,0,0,1.5557.6734,2.2037,2.2037,0,0,0,1.1348-.2735,2.8527,2.8527,0,0,0,.8134-.7246l.7725.6016A3.1064,3.1064,0,0,1,728.1064,69.1084Zm-.1572-6.6309a1.6861,1.6861,0,0,0-1.2851.5572,2.706,2.706,0,0,0-.6426,1.562h3.7051V64.501a2.4089,2.4089,0,0,0-.52-1.4937A1.5887,1.5887,0,0,0,727.9492,62.4775Z" style="fill:#fff"/><path d="M736.0293,62.71a3.7975,3.7975,0,0,0-.6221-.0479,1.6661,1.6661,0,0,0-1.6884,1.06v5.25h-1.2647V61.5752h1.2305l.02.8545a1.97,1.97,0,0,1,1.7637-.9912,1.29,1.29,0,0,1,.5605.0957Z" style="fill:#fff"/><path d="M743.2891,65.26h-3.336V64.2275h3.336Z" style="fill:#fff"/><path d="M508.5635,85.7715H507.251V75.8184h1.3125Z" style="fill:#fff"/><path d="M511.9609,78.375l.0411.93a2.6962,2.6962,0,0,1,2.2148-1.0664q2.3452,0,2.3652,2.6455v4.8877h-1.2646V80.877a1.71,1.71,0,0,0-.3653-1.1827,1.4678,1.4678,0,0,0-1.1181-.3828,1.8249,1.8249,0,0,0-1.08.3281,2.2278,2.2278,0,0,0-.7246.8614v5.27h-1.2647V78.375Z" style="fill:#fff"/><path d="M522.7959,83.81a.93.93,0,0,0-.3867-.7964,3.714,3.714,0,0,0-1.3457-.4888,6.3855,6.3855,0,0,1-1.5254-.4922,2.1824,2.1824,0,0,1-.834-.6836,1.6363,1.6363,0,0,1-.2695-.9433,1.9167,1.9167,0,0,1,.7695-1.5381,2.9988,2.9988,0,0,1,1.9648-.6289,3.0919,3.0919,0,0,1,2.0411.6494,2.0638,2.0638,0,0,1,.7822,1.6611h-1.2715a1.1443,1.1443,0,0,0-.44-.8955,1.6566,1.6566,0,0,0-1.1114-.376,1.7283,1.7283,0,0,0-1.08.3008.9468.9468,0,0,0-.39.7862.7679.7679,0,0,0,.3623.69,4.4533,4.4533,0,0,0,1.3086.4443,6.8076,6.8076,0,0,1,1.5352.5059,2.2316,2.2316,0,0,1,.8711.7075,1.7381,1.7381,0,0,1,.2841,1.0083,1.8944,1.8944,0,0,1-.7929,1.5894,3.3254,3.3254,0,0,1-2.0576.5981,3.7284,3.7284,0,0,1-1.5723-.3144,2.5572,2.5572,0,0,1-1.07-.8785,2.1208,2.1208,0,0,1-.3858-1.22h1.2647a1.3071,1.3071,0,0,0,.51,1.0083,1.9721,1.9721,0,0,0,1.2539.3726,2.0407,2.0407,0,0,0,1.1523-.2906A.8927.8927,0,0,0,522.7959,83.81Z" style="fill:#fff"/><path d="M527.4238,76.584v1.791h1.3809v.9775h-1.3809v4.5928a1.028,1.028,0,0,0,.1846.6675.7784.7784,0,0,0,.6289.2222,3.0625,3.0625,0,0,0,.6016-.0821v1.02a3.7011,3.7011,0,0,1-.9707.1357,1.5747,1.5747,0,0,1-1.2784-.5127,2.2025,2.2025,0,0,1-.4306-1.456v-4.587h-1.3467V78.375h1.3467V76.584Z" style="fill:#fff"/><path d="M530.2881,76.4131a.7517.7517,0,0,1,.1885-.5195.7045.7045,0,0,1,.5566-.212.7178.7178,0,0,1,.5606.212.7452.7452,0,0,1,.1914.5195.721.721,0,0,1-.1914.5127.7306.7306,0,0,1-.5606.2051.7169.7169,0,0,1-.5566-.2051A.7272.7272,0,0,1,530.2881,76.4131Zm1.3672,9.3584h-1.2647V78.375h1.2647Z" style="fill:#fff"/><path d="M535.3945,76.584v1.791h1.3809v.9775h-1.3809v4.5928a1.028,1.028,0,0,0,.1846.6675.7784.7784,0,0,0,.6289.2222,3.0625,3.0625,0,0,0,.6016-.0821v1.02a3.7011,3.7011,0,0,1-.9707.1357,1.5747,1.5747,0,0,1-1.2784-.5127,2.2025,2.2025,0,0,1-.4306-1.456v-4.587h-1.3467V78.375H534.13V76.584Z" style="fill:#fff"/><path d="M542.8184,85.04a2.687,2.687,0,0,1-2.167.8682,2.3019,2.3019,0,0,1-1.8018-.687,2.9769,2.9769,0,0,1-.625-2.0337V78.375h1.2647v4.7783q0,1.6816,1.3671,1.6817a1.8935,1.8935,0,0,0,1.9278-1.08v-5.38h1.2646v7.3965h-1.2031Z" style="fill:#fff"/><path d="M547.6855,76.584v1.791h1.3809v.9775h-1.3809v4.5928a1.028,1.028,0,0,0,.1846.6675.7785.7785,0,0,0,.6289.2222,3.0625,3.0625,0,0,0,.6016-.0821v1.02a3.7011,3.7011,0,0,1-.9707.1357,1.5745,1.5745,0,0,1-1.2783-.5127,2.2025,2.2025,0,0,1-.4307-1.456v-4.587h-1.3467V78.375h1.3467V76.584Z" style="fill:#fff"/><path d="M553.6123,85.9082a3.2307,3.2307,0,0,1-2.4473-.9878,3.6663,3.6663,0,0,1-.9433-2.6421v-.2324a4.4242,4.4242,0,0,1,.4209-1.9653,3.2675,3.2675,0,0,1,1.1758-1.3535,2.9541,2.9541,0,0,1,1.6367-.4888,2.77,2.77,0,0,1,2.2422.95,4.114,4.114,0,0,1,.8,2.7207v.5263h-5.0108a2.6339,2.6339,0,0,0,.6387,1.7671,2.011,2.011,0,0,0,1.5557.6734,2.2031,2.2031,0,0,0,1.1347-.2735,2.8517,2.8517,0,0,0,.8135-.7246l.7725.6016A3.1064,3.1064,0,0,1,553.6123,85.9082Zm-.1572-6.6309a1.6863,1.6863,0,0,0-1.2852.5572,2.7067,2.7067,0,0,0-.6426,1.562h3.7051v-.0957a2.4082,2.4082,0,0,0-.5195-1.4937A1.5888,1.5888,0,0,0,553.4551,79.2773Z" style="fill:#fff"/><path d="M561.0908,82.0049a4.3767,4.3767,0,0,1,.4268-1.9551,3.1917,3.1917,0,0,1,1.1894-1.34,3.2417,3.2417,0,0,1,1.74-.4717,3.1171,3.1171,0,0,1,2.4433,1.0459,4.0188,4.0188,0,0,1,.9336,2.7822v.0889a4.398,4.398,0,0,1-.414,1.938,3.1434,3.1434,0,0,1-1.1817,1.3364,3.2817,3.2817,0,0,1-1.7676.4785,3.1134,3.1134,0,0,1-2.4375-1.0459,4.0079,4.0079,0,0,1-.9326-2.7685Zm1.2715.15a3.1619,3.1619,0,0,0,.5713,1.9756,1.9338,1.9338,0,0,0,3.0586-.01,3.4626,3.4626,0,0,0,.5674-2.1157,3.16,3.16,0,0,0-.5772-1.9722,1.8388,1.8388,0,0,0-1.5351-.7554,1.8168,1.8168,0,0,0-1.5108.7452A3.4337,3.4337,0,0,0,562.3623,82.1553Z" style="fill:#fff"/><path d="M570.0322,85.7715v-6.419h-1.1689V78.375h1.1689v-.7588a2.5187,2.5187,0,0,1,.6358-1.8389,2.4013,2.4013,0,0,1,1.7978-.6494,3.3489,3.3489,0,0,1,.8682.1153l-.0684,1.0195a3.6331,3.6331,0,0,0-.6836-.0615,1.2356,1.2356,0,0,0-.95.36,1.46,1.46,0,0,0-.3349,1.0323v.7817h1.5791v.9775h-1.5791v6.419Z" style="fill:#fff"/><path d="M579.2471,81.875v3.8965h-1.3125V75.8184h3.6709a3.69,3.69,0,0,1,2.5605.8339,2.8284,2.8284,0,0,1,.9258,2.2081,2.7882,2.7882,0,0,1-.9063,2.2319,3.8491,3.8491,0,0,1-2.5937.7827Zm0-1.0732h2.3584a2.3582,2.3582,0,0,0,1.6133-.4966,1.8136,1.8136,0,0,0,.5605-1.4346,1.8742,1.8742,0,0,0-.5605-1.4243,2.2112,2.2112,0,0,0-1.5381-.5547h-2.4336Z" style="fill:#fff"/><path d="M586.1445,82.0049a4.3767,4.3767,0,0,1,.4268-1.9551,3.1917,3.1917,0,0,1,1.1894-1.34,3.2417,3.2417,0,0,1,1.74-.4717,3.1171,3.1171,0,0,1,2.4433,1.0459,4.0188,4.0188,0,0,1,.9336,2.7822v.0889a4.398,4.398,0,0,1-.414,1.938,3.1434,3.1434,0,0,1-1.1817,1.3364,3.2815,3.2815,0,0,1-1.7676.4785,3.1134,3.1134,0,0,1-2.4375-1.0459,4.0084,4.0084,0,0,1-.9326-2.7685Zm1.2715.15a3.1619,3.1619,0,0,0,.5713,1.9756,1.9338,1.9338,0,0,0,3.0586-.01,3.4626,3.4626,0,0,0,.5674-2.1157,3.16,3.16,0,0,0-.5772-1.9722,1.8388,1.8388,0,0,0-1.5351-.7554,1.817,1.817,0,0,0-1.5108.7452A3.4337,3.4337,0,0,0,587.416,82.1553Z" style="fill:#fff"/><path d="M595.8379,85.7715h-1.2647v-10.5h1.2647Z" style="fill:#fff"/><path d="M597.8682,76.4131a.7521.7521,0,0,1,.1884-.5195.7047.7047,0,0,1,.5567-.212.7174.7174,0,0,1,.5605.212.7447.7447,0,0,1,.1914.5195.7206.7206,0,0,1-.1914.5127.73.73,0,0,1-.5605.2051.7171.7171,0,0,1-.5567-.2051A.7276.7276,0,0,1,597.8682,76.4131Zm1.3672,9.3584h-1.2647V78.375h1.2647Z" style="fill:#fff"/><path d="M602.9746,76.584v1.791h1.3809v.9775h-1.3809v4.5928a1.0274,1.0274,0,0,0,.1846.6675.7784.7784,0,0,0,.6289.2222,3.0607,3.0607,0,0,0,.6015-.0821v1.02a3.7005,3.7005,0,0,1-.9707.1357,1.5745,1.5745,0,0,1-1.2783-.5127,2.2025,2.2025,0,0,1-.4306-1.456v-4.587h-1.3467V78.375H601.71V76.584Z" style="fill:#fff"/><path d="M605.8389,76.4131a.7521.7521,0,0,1,.1884-.5195.7047.7047,0,0,1,.5567-.212.7174.7174,0,0,1,.5605.212.7447.7447,0,0,1,.1914.5195.7206.7206,0,0,1-.1914.5127.73.73,0,0,1-.5605.2051.7171.7171,0,0,1-.5567-.2051A.7276.7276,0,0,1,605.8389,76.4131Zm1.3672,9.3584h-1.2647V78.375h1.2647Z" style="fill:#fff"/><path d="M612.1963,84.876a1.8206,1.8206,0,0,0,1.1826-.41A1.4432,1.4432,0,0,0,613.94,83.44h1.1962a2.2923,2.2923,0,0,1-.4375,1.21,2.8834,2.8834,0,0,1-1.0761.916,3.1088,3.1088,0,0,1-1.4258.3418A3.0446,3.0446,0,0,1,609.7939,84.9a4.012,4.012,0,0,1-.8925-2.7583V81.93a4.4469,4.4469,0,0,1,.3965-1.9209,3.0194,3.0194,0,0,1,1.1386-1.3057,3.2292,3.2292,0,0,1,1.753-.4648,2.9656,2.9656,0,0,1,2.0673.7451,2.6594,2.6594,0,0,1,.8789,1.9346H613.94a1.7407,1.7407,0,0,0-.544-1.1792,1.6884,1.6884,0,0,0-1.206-.4615,1.7688,1.7688,0,0,0-1.4932.6939,3.2559,3.2559,0,0,0-.53,2.0063v.2393a3.1962,3.1962,0,0,0,.5264,1.9687A1.778,1.778,0,0,0,612.1963,84.876Z" style="fill:#fff"/><path d="M621.124,85.7715a2.6614,2.6614,0,0,1-.1777-.7793,2.8217,2.8217,0,0,1-2.1055.916,2.6124,2.6124,0,0,1-1.7949-.6186,2.0027,2.0027,0,0,1-.7-1.5689,2.0925,2.0925,0,0,1,.8779-1.7944,4.1434,4.1434,0,0,1,2.4717-.6392h1.2305v-.581a1.42,1.42,0,0,0-.3965-1.0562,1.5939,1.5939,0,0,0-1.1689-.3931,1.844,1.844,0,0,0-1.1348.3418,1.0065,1.0065,0,0,0-.458.8272h-1.2715a1.7426,1.7426,0,0,1,.3935-1.07,2.6772,2.6772,0,0,1,1.0665-.8169,3.5789,3.5789,0,0,1,1.4794-.3008,2.9236,2.9236,0,0,1,2.003.6391,2.3055,2.3055,0,0,1,.7519,1.76V84.042a4.166,4.166,0,0,0,.26,1.62v.1094Zm-2.0986-.9639a2.2221,2.2221,0,0,0,1.1279-.3076,1.8591,1.8591,0,0,0,.7725-.8V82.1826h-.9912q-2.3247,0-2.3242,1.36a1.15,1.15,0,0,0,.3964.93A1.5253,1.5253,0,0,0,619.0254,84.8076Z" style="fill:#fff"/><path d="M625.5469,85.7715h-1.2647v-10.5h1.2647Z" style="fill:#fff"/><path d="M634.167,81.335a6.1624,6.1624,0,0,1-2.457-1.1929,2.276,2.276,0,0,1-.77-1.7466,2.4091,2.4091,0,0,1,.94-1.9448,3.7368,3.7368,0,0,1,2.4443-.7691,4.0846,4.0846,0,0,1,1.8291.3965,3.0141,3.0141,0,0,1,1.2442,1.0938,2.8053,2.8053,0,0,1,.44,1.5244h-1.3193a1.82,1.82,0,0,0-.5743-1.4234,2.3353,2.3353,0,0,0-1.62-.518,2.392,2.392,0,0,0-1.5146.4282,1.4294,1.4294,0,0,0-.543,1.188,1.2855,1.2855,0,0,0,.5156,1.0308,5.069,5.069,0,0,0,1.7578.77,8.18,8.18,0,0,1,1.9414.77,2.9588,2.9588,0,0,1,1.0391.981,2.5119,2.5119,0,0,1,.3379,1.3193,2.3257,2.3257,0,0,1-.9434,1.938,4.0224,4.0224,0,0,1-2.5224.728,4.6772,4.6772,0,0,1-1.9141-.3931,3.2142,3.2142,0,0,1-1.37-1.0766,2.6211,2.6211,0,0,1-.4824-1.5518h1.3193a1.712,1.712,0,0,0,.667,1.4253,2.8027,2.8027,0,0,0,1.78.523,2.58,2.58,0,0,0,1.5928-.4239,1.3766,1.3766,0,0,0,.5537-1.1552,1.3514,1.3514,0,0,0-.5127-1.1314A5.9129,5.9129,0,0,0,634.167,81.335Z" style="fill:#fff"/><path d="M642.3086,84.876a1.8206,1.8206,0,0,0,1.1826-.41,1.4432,1.4432,0,0,0,.5606-1.0254h1.1962a2.2923,2.2923,0,0,1-.4375,1.21,2.8834,2.8834,0,0,1-1.0761.916,3.1088,3.1088,0,0,1-1.4258.3418A3.0442,3.0442,0,0,1,639.9063,84.9a4.0115,4.0115,0,0,1-.8926-2.7583V81.93a4.4469,4.4469,0,0,1,.3965-1.9209,3.0194,3.0194,0,0,1,1.1386-1.3057,3.2294,3.2294,0,0,1,1.753-.4648,2.9656,2.9656,0,0,1,2.0673.7451,2.6594,2.6594,0,0,1,.8789,1.9346h-1.1962a1.7407,1.7407,0,0,0-.544-1.1792,1.6884,1.6884,0,0,0-1.206-.4615,1.7688,1.7688,0,0,0-1.4932.6939,3.2559,3.2559,0,0,0-.53,2.0063v.2393a3.1962,3.1962,0,0,0,.5264,1.9687A1.778,1.778,0,0,0,642.3086,84.876Z" style="fill:#fff"/><path d="M646.6768,76.4131a.7521.7521,0,0,1,.1884-.5195.7047.7047,0,0,1,.5567-.212.7174.7174,0,0,1,.56.212.7447.7447,0,0,1,.1914.5195.7206.7206,0,0,1-.1914.5127.73.73,0,0,1-.56.2051.7171.7171,0,0,1-.5567-.2051A.7276.7276,0,0,1,646.6768,76.4131Zm1.3671,9.3584h-1.2646V78.375h1.2646Z" style="fill:#fff"/><path d="M653.1367,85.9082A3.2305,3.2305,0,0,1,650.69,84.92a3.666,3.666,0,0,1-.9434-2.6421v-.2324a4.4242,4.4242,0,0,1,.4209-1.9653,3.2675,3.2675,0,0,1,1.1758-1.3535,2.9541,2.9541,0,0,1,1.6367-.4888,2.77,2.77,0,0,1,2.2422.95,4.114,4.114,0,0,1,.8,2.7207v.5263h-5.0108a2.6339,2.6339,0,0,0,.6387,1.7671,2.011,2.011,0,0,0,1.5557.6734,2.2031,2.2031,0,0,0,1.1347-.2735,2.8517,2.8517,0,0,0,.8135-.7246l.7725.6016A3.1064,3.1064,0,0,1,653.1367,85.9082Zm-.1572-6.6309a1.6865,1.6865,0,0,0-1.2852.5572,2.7066,2.7066,0,0,0-.6425,1.562h3.705v-.0957a2.4082,2.4082,0,0,0-.5195-1.4937A1.5888,1.5888,0,0,0,652.98,79.2773Z" style="fill:#fff"/><path d="M658.6807,78.375l.041.93a2.6962,2.6962,0,0,1,2.2148-1.0664q2.3452,0,2.3653,2.6455v4.8877h-1.2647V80.877a1.71,1.71,0,0,0-.3652-1.1827,1.468,1.468,0,0,0-1.1182-.3828,1.8251,1.8251,0,0,0-1.08.3281,2.23,2.23,0,0,0-.7246.8614v5.27h-1.2646V78.375Z" style="fill:#fff"/><path d="M668.1758,84.876a1.8206,1.8206,0,0,0,1.1826-.41,1.4427,1.4427,0,0,0,.5605-1.0254h1.1963a2.2923,2.2923,0,0,1-.4375,1.21,2.8834,2.8834,0,0,1-1.0761.916,3.1091,3.1091,0,0,1-1.4258.3418A3.0445,3.0445,0,0,1,665.7734,84.9a4.012,4.012,0,0,1-.8925-2.7583V81.93a4.4483,4.4483,0,0,1,.3964-1.9209,3.02,3.02,0,0,1,1.1387-1.3057,3.2291,3.2291,0,0,1,1.7529-.4648,2.9658,2.9658,0,0,1,2.0674.7451,2.6594,2.6594,0,0,1,.8789,1.9346h-1.1963a1.74,1.74,0,0,0-.5439-1.1792,1.6885,1.6885,0,0,0-1.2061-.4615,1.7687,1.7687,0,0,0-1.4931.6939,3.2559,3.2559,0,0,0-.53,2.0063v.2393a3.1962,3.1962,0,0,0,.5264,1.9687A1.778,1.778,0,0,0,668.1758,84.876Z" style="fill:#fff"/><path d="M675.6064,85.9082a3.2305,3.2305,0,0,1-2.4472-.9878,3.6664,3.6664,0,0,1-.9434-2.6421v-.2324a4.4255,4.4255,0,0,1,.4209-1.9653,3.2675,3.2675,0,0,1,1.1758-1.3535,2.9541,2.9541,0,0,1,1.6367-.4888,2.77,2.77,0,0,1,2.2422.95,4.114,4.114,0,0,1,.8,2.7207v.5263h-5.0107a2.6333,2.6333,0,0,0,.6386,1.7671,2.011,2.011,0,0,0,1.5557.6734,2.2037,2.2037,0,0,0,1.1348-.2735,2.8527,2.8527,0,0,0,.8134-.7246l.7725.6016A3.1064,3.1064,0,0,1,675.6064,85.9082Zm-.1572-6.6309a1.6861,1.6861,0,0,0-1.2851.5572,2.706,2.706,0,0,0-.6426,1.562h3.7051v-.0957a2.4089,2.4089,0,0,0-.52-1.4937A1.5887,1.5887,0,0,0,675.4492,79.2773Z" style="fill:#fff"/><line x1="433" y1="110" x2="433" y2="183" style="fill:none;stroke:#fff;stroke-miterlimit:10;stroke-width:1.07644329099593px;opacity:0.6000000000000001"/></svg>